<svg width="30" height="30" viewBox="0 0 30 30" fill="none" xmlns="http://www.w3.org/2000/svg">
<path d="M20.3735 24.5464C20.3735 27.4753 17.9992 29.8496 15.0703 29.8496C12.1414 29.8496 9.7671 27.4753 9.7671 24.5464L9.7671 5.76916C9.7671 2.84027 12.1414 0.465934 15.0703 0.465934C17.9992 0.465935 20.3735 2.84027 20.3735 5.76916L20.3735 24.5464Z" fill="#2E37A4"/>
<path d="M15.2011 9.92773C18.0911 9.92773 20.4338 12.2705 20.4338 15.1604C20.4338 18.0504 18.0911 20.3932 15.2011 20.3932L5.54075 20.3932C2.6508 20.3932 0.308035 18.0504 0.308035 15.1604C0.308035 12.2705 2.6508 9.92773 5.54075 9.92773L15.2011 9.92773Z" fill="#2E37A4"/>
<path d="M24.4589 9.92773C27.3489 9.92773 29.6917 12.2705 29.6917 15.1604C29.6917 18.0504 27.3489 20.3932 24.4589 20.3932L14.9998 20.3932C12.1099 20.3932 9.7671 18.0504 9.7671 15.1604C9.7671 12.2705 12.1099 9.92773 14.9998 9.92773L24.4589 9.92773Z" fill="#00D3C7"/>
<path d="M20.6665 10L20.6665 20.4654L15.2325 20.4654C12.3426 20.4654 9.99983 18.1227 9.99983 15.2327C9.99983 12.3428 12.3426 10 15.2325 10L20.6665 10Z" fill="white"/>
</svg>
