<svg width="140" height="38" viewBox="0 0 140 38" fill="none" xmlns="http://www.w3.org/2000/svg">
<g filter="url(#filter0_d_59618_46178)">
<path d="M24.3738 24.3882C24.3738 27.3171 21.9994 29.6914 19.0706 29.6914V29.6914C16.1417 29.6914 13.7673 27.3171 13.7673 24.3882L13.7673 5.61095C13.7673 2.68206 16.1417 0.307731 19.0706 0.307732V0.307732C21.9995 0.307732 24.3738 2.68207 24.3738 5.61095L24.3738 24.3882Z" fill="#2E37A4"/>
<path d="M19.2014 9.76953C22.0913 9.76953 24.4341 12.1123 24.4341 15.0022V15.0022C24.4341 17.8922 22.0913 20.2349 19.2014 20.2349L9.54099 20.2349C6.65104 20.2349 4.30828 17.8922 4.30828 15.0022V15.0022C4.30828 12.1123 6.65104 9.76953 9.54099 9.76953L19.2014 9.76953Z" fill="#2E37A4"/>
<path d="M28.4592 9.76953C31.3491 9.76953 33.6919 12.1123 33.6919 15.0022V15.0022C33.6919 17.8922 31.3491 20.2349 28.4592 20.2349L19.0001 20.2349C16.1101 20.2349 13.7673 17.8922 13.7673 15.0022V15.0022C13.7673 12.1123 16.1101 9.76953 19.0001 9.76953L28.4592 9.76953Z" fill="#00D3C7"/>
<path d="M24.4341 9.76953L24.4341 20.2349L19.0001 20.2349C16.1102 20.2349 13.7674 17.8922 13.7674 15.0022V15.0022C13.7674 12.1123 16.1102 9.76953 19.0001 9.76953L24.4341 9.76953Z" fill="white"/>
<path d="M46.7247 5.80645C48.5391 5.80645 50.066 6.41577 51.3055 7.63441C52.545 8.85305 53.1647 10.3495 53.1647 12.1237C53.1647 13.8978 52.545 15.3943 51.3055 16.6129C50.066 17.8315 48.5391 18.4409 46.7247 18.4409H43.4104V24.6237H39.6919V5.80645H46.7247ZM46.7247 14.9731C47.5151 14.9731 48.1708 14.7043 48.6917 14.1667C49.2127 13.6111 49.4732 12.9301 49.4732 12.1237C49.4732 11.2993 49.2127 10.6183 48.6917 10.0806C48.1708 9.54301 47.5151 9.27419 46.7247 9.27419H43.4104V14.9731H46.7247Z" fill="#030303"/>
<path d="M57.8021 13.4946C58.1255 12.6344 58.6554 11.9892 59.3919 11.5591C60.1464 11.129 60.9817 10.914 61.8979 10.914V14.7849C60.838 14.6595 59.8859 14.8746 59.0416 15.4301C58.2153 15.9857 57.8021 16.9086 57.8021 18.1989V24.6237H54.3261V11.1828H57.8021V13.4946Z" fill="#030303"/>
<path d="M65.5595 19.328C66.0266 21.0125 67.293 21.8548 69.3588 21.8548C70.6882 21.8548 71.6941 21.4068 72.3768 20.5108L75.1791 22.1237C73.8498 24.0412 71.8917 25 69.305 25C67.0775 25 65.2901 24.328 63.9428 22.9839C62.5955 21.6398 61.9218 19.9462 61.9218 17.9032C61.9218 15.8781 62.5865 14.1935 63.9158 12.8495C65.2451 11.4875 66.9517 10.8065 69.0355 10.8065C71.0115 10.8065 72.6372 11.4875 73.9127 12.8495C75.2061 14.2115 75.8528 15.8961 75.8528 17.9032C75.8528 18.3513 75.8078 18.8262 75.718 19.328H65.5595ZM65.5056 16.6398H72.3768C72.1792 15.7258 71.766 15.0448 71.1373 14.5968C70.5265 14.1487 69.8259 13.9247 69.0355 13.9247C68.1014 13.9247 67.3289 14.1667 66.7182 14.6505C66.1074 15.1165 65.7032 15.7796 65.5056 16.6398Z" fill="#030303"/>
<path d="M83.7788 25C81.7489 25 80.0513 24.319 78.686 22.957C77.3388 21.595 76.6651 19.9104 76.6651 17.9032C76.6651 15.8961 77.3388 14.2115 78.686 12.8495C80.0513 11.4875 81.7489 10.8065 83.7788 10.8065C85.0901 10.8065 86.2847 11.1201 87.3625 11.7473C88.4404 12.3746 89.2577 13.2168 89.8146 14.2742L86.8236 16.0215C86.5542 15.4659 86.141 15.0269 85.5841 14.7043C85.0452 14.3817 84.4345 14.2204 83.7518 14.2204C82.7099 14.2204 81.8477 14.5699 81.165 15.2688C80.4824 15.9498 80.1411 16.828 80.1411 17.9032C80.1411 18.9606 80.4824 19.8387 81.165 20.5376C81.8477 21.2186 82.7099 21.5591 83.7518 21.5591C84.4524 21.5591 85.0722 21.4068 85.6111 21.1021C86.168 20.7796 86.5811 20.3405 86.8506 19.7849L89.8685 21.5054C89.2757 22.5627 88.4404 23.414 87.3625 24.0591C86.2847 24.6864 85.0901 25 83.7788 25Z" fill="#030303"/>
<path d="M90.8985 24.6237V5H94.3745V24.6237H90.8985Z" fill="#030303"/>
<path d="M98.4722 9.56989C97.8973 9.56989 97.3943 9.3638 96.9632 8.95161C96.55 8.5215 96.3434 8.01971 96.3434 7.44624C96.3434 6.87276 96.55 6.37097 96.9632 5.94086C97.3943 5.51075 97.8973 5.2957 98.4722 5.2957C99.065 5.2957 99.5679 5.51075 99.9811 5.94086C100.412 6.37097 100.628 6.87276 100.628 7.44624C100.628 8.01971 100.412 8.5215 99.9811 8.95161C99.5679 9.3638 99.065 9.56989 98.4722 9.56989ZM96.7476 24.6237V11.1828H100.224V24.6237H96.7476Z" fill="#030303"/>
<path d="M110.088 10.8065C111.561 10.8065 112.773 11.2993 113.725 12.2849C114.695 13.2706 115.18 14.6326 115.18 16.371V24.6237H111.704V16.8011C111.704 15.905 111.462 15.224 110.977 14.7581C110.492 14.2742 109.845 14.0323 109.037 14.0323C108.139 14.0323 107.42 14.31 106.881 14.8656C106.342 15.4211 106.073 16.2545 106.073 17.3656V24.6237H102.597V11.1828H106.073V12.6882C106.917 11.4337 108.255 10.8065 110.088 10.8065Z" fill="#030303"/>
<path d="M119.065 9.56989C118.49 9.56989 117.987 9.3638 117.556 8.95161C117.142 8.5215 116.936 8.01971 116.936 7.44624C116.936 6.87276 117.142 6.37097 117.556 5.94086C117.987 5.51075 118.49 5.2957 119.065 5.2957C119.657 5.2957 120.16 5.51075 120.573 5.94086C121.005 6.37097 121.22 6.87276 121.22 7.44624C121.22 8.01971 121.005 8.5215 120.573 8.95161C120.16 9.3638 119.657 9.56989 119.065 9.56989ZM117.34 24.6237V11.1828H120.816V24.6237H117.34Z" fill="#030303"/>
<path d="M129.602 25C127.572 25 125.875 24.319 124.509 22.957C123.162 21.595 122.489 19.9104 122.489 17.9032C122.489 15.8961 123.162 14.2115 124.509 12.8495C125.875 11.4875 127.572 10.8065 129.602 10.8065C130.914 10.8065 132.108 11.1201 133.186 11.7473C134.264 12.3746 135.081 13.2168 135.638 14.2742L132.647 16.0215C132.378 15.4659 131.964 15.0269 131.408 14.7043C130.869 14.3817 130.258 14.2204 129.575 14.2204C128.533 14.2204 127.671 14.5699 126.988 15.2688C126.306 15.9498 125.965 16.828 125.965 17.9032C125.965 18.9606 126.306 19.8387 126.988 20.5376C127.671 21.2186 128.533 21.5591 129.575 21.5591C130.276 21.5591 130.896 21.4068 131.434 21.1021C131.991 20.7796 132.405 20.3405 132.674 19.7849L135.692 21.5054C135.099 22.5627 134.264 23.414 133.186 24.0591C132.108 24.6864 130.914 25 129.602 25Z" fill="#030303"/>
</g>
<defs>
<filter id="filter0_d_59618_46178" x="0.308228" y="0.308594" width="139.384" height="37.3828" filterUnits="userSpaceOnUse" color-interpolation-filters="sRGB">
<feFlood flood-opacity="0" result="BackgroundImageFix"/>
<feColorMatrix in="SourceAlpha" type="matrix" values="0 0 0 0 0 0 0 0 0 0 0 0 0 0 0 0 0 0 127 0" result="hardAlpha"/>
<feOffset dy="4"/>
<feGaussianBlur stdDeviation="2"/>
<feComposite in2="hardAlpha" operator="out"/>
<feColorMatrix type="matrix" values="0 0 0 0 0 0 0 0 0 0 0 0 0 0 0 0 0 0 0.25 0"/>
<feBlend mode="normal" in2="BackgroundImageFix" result="effect1_dropShadow_59618_46178"/>
<feBlend mode="normal" in="SourceGraphic" in2="effect1_dropShadow_59618_46178" result="shape"/>
</filter>
</defs>
</svg>
