<svg width="16" height="16" viewBox="0 0 16 16" fill="none" xmlns="http://www.w3.org/2000/svg">
<g clip-path="url(#clip0_59642_41781)">
<path d="M2.6665 4.66671C2.6665 4.31309 2.80698 3.97395 3.05703 3.7239C3.30708 3.47385 3.64622 3.33337 3.99984 3.33337H11.9998C12.3535 3.33337 12.6926 3.47385 12.9426 3.7239C13.1927 3.97395 13.3332 4.31309 13.3332 4.66671V12.6667C13.3332 13.0203 13.1927 13.3595 12.9426 13.6095C12.6926 13.8596 12.3535 14 11.9998 14H3.99984C3.64622 14 3.30708 13.8596 3.05703 13.6095C2.80698 13.3595 2.6665 13.0203 2.6665 12.6667V4.66671Z" stroke="#0A1B39" stroke-linecap="round" stroke-linejoin="round"/>
<path d="M10.6665 2V4.66667" stroke="#0A1B39" stroke-linecap="round" stroke-linejoin="round"/>
<path d="M5.3335 2V4.66667" stroke="#0A1B39" stroke-linecap="round" stroke-linejoin="round"/>
<path d="M2.6665 7.33337H13.3332" stroke="#0A1B39" stroke-linecap="round" stroke-linejoin="round"/>
<path d="M7.3335 10.6667C7.3335 10.8435 7.40373 11.013 7.52876 11.1381C7.65378 11.2631 7.82335 11.3333 8.00016 11.3333C8.17697 11.3333 8.34654 11.2631 8.47157 11.1381C8.59659 11.013 8.66683 10.8435 8.66683 10.6667C8.66683 10.4899 8.59659 10.3203 8.47157 10.1953C8.34654 10.0702 8.17697 10 8.00016 10C7.82335 10 7.65378 10.0702 7.52876 10.1953C7.40373 10.3203 7.3335 10.4899 7.3335 10.6667Z" stroke="#0A1B39" stroke-linecap="round" stroke-linejoin="round"/>
</g>
<defs>
<clipPath id="clip0_59642_41781">
<rect width="16" height="16" fill="white"/>
</clipPath>
</defs>
</svg>
