<svg width="14" height="14" viewBox="0 0 14 14" fill="none" xmlns="http://www.w3.org/2000/svg">
<path d="M2.91663 7.58268C2.91663 7.27326 3.03954 6.97652 3.25833 6.75772C3.47713 6.53893 3.77387 6.41602 4.08329 6.41602H9.91663C10.226 6.41602 10.5228 6.53893 10.7416 6.75772C10.9604 6.97652 11.0833 7.27326 11.0833 7.58268V11.0827C11.0833 11.3921 10.9604 11.6888 10.7416 11.9076C10.5228 12.1264 10.226 12.2493 9.91663 12.2493H4.08329C3.77387 12.2493 3.47713 12.1264 3.25833 11.9076C3.03954 11.6888 2.91663 11.3921 2.91663 11.0827V7.58268Z" stroke="#0A1B39" stroke-linecap="round" stroke-linejoin="round"/>
<path d="M6.41663 9.33333C6.41663 9.48804 6.47808 9.63642 6.58748 9.74581C6.69688 9.85521 6.84525 9.91667 6.99996 9.91667C7.15467 9.91667 7.30304 9.85521 7.41244 9.74581C7.52183 9.63642 7.58329 9.48804 7.58329 9.33333C7.58329 9.17862 7.52183 9.03025 7.41244 8.92085C7.30304 8.81146 7.15467 8.75 6.99996 8.75C6.84525 8.75 6.69688 8.81146 6.58748 8.92085C6.47808 9.03025 6.41663 9.17862 6.41663 9.33333Z" stroke="#0A1B39" stroke-linecap="round" stroke-linejoin="round"/>
<path d="M4.66663 6.41667V4.08333C4.66663 3.46449 4.91246 2.871 5.35004 2.43342C5.78763 1.99583 6.38112 1.75 6.99996 1.75C7.6188 1.75 8.21229 1.99583 8.64988 2.43342C9.08746 2.871 9.33329 3.46449 9.33329 4.08333V6.41667" stroke="#0A1B39" stroke-linecap="round" stroke-linejoin="round"/>
</svg>
