<svg width="14" height="14" viewBox="0 0 14 14" fill="none" xmlns="http://www.w3.org/2000/svg">
<path d="M1.75 4.08268C1.75 3.77326 1.87292 3.47652 2.09171 3.25772C2.3105 3.03893 2.60725 2.91602 2.91667 2.91602H11.0833C11.3928 2.91602 11.6895 3.03893 11.9083 3.25772C12.1271 3.47652 12.25 3.77326 12.25 4.08268V9.91602C12.25 10.2254 12.1271 10.5222 11.9083 10.741C11.6895 10.9598 11.3928 11.0827 11.0833 11.0827H2.91667C2.60725 11.0827 2.3105 10.9598 2.09171 10.741C1.87292 10.5222 1.75 10.2254 1.75 9.91602V4.08268Z" stroke="#0A1B39" stroke-linecap="round" stroke-linejoin="round"/>
<path d="M1.75 4.08398L7 7.58398L12.25 4.08398" stroke="#0A1B39" stroke-linecap="round" stroke-linejoin="round"/>
</svg>
