<svg width="14" height="14" viewBox="0 0 14 14" fill="none" xmlns="http://www.w3.org/2000/svg">
<path d="M4.66663 4.08333C4.66663 4.70217 4.91246 5.29566 5.35004 5.73325C5.78763 6.17083 6.38112 6.41667 6.99996 6.41667C7.6188 6.41667 8.21229 6.17083 8.64988 5.73325C9.08746 5.29566 9.33329 4.70217 9.33329 4.08333C9.33329 3.46449 9.08746 2.871 8.64988 2.43342C8.21229 1.99583 7.6188 1.75 6.99996 1.75C6.38112 1.75 5.78763 1.99583 5.35004 2.43342C4.91246 2.871 4.66663 3.46449 4.66663 4.08333Z" stroke="#0A1B39" stroke-linecap="round" stroke-linejoin="round"/>
<path d="M3.5 12.25V11.0833C3.5 10.4645 3.74583 9.871 4.18342 9.43342C4.621 8.99583 5.21449 8.75 5.83333 8.75H8.16667C8.7855 8.75 9.379 8.99583 9.81658 9.43342C10.2542 9.871 10.5 10.4645 10.5 11.0833V12.25" stroke="#0A1B39" stroke-linecap="round" stroke-linejoin="round"/>
</svg>
