<svg width="14" height="14" viewBox="0 0 14 14" fill="none" xmlns="http://www.w3.org/2000/svg">
<path d="M7 1C8.18669 1 9.34673 1.35189 10.3334 2.01118C11.3201 2.67047 12.0892 3.60754 12.5433 4.7039C12.9974 5.80026 13.1162 7.00666 12.8847 8.17054C12.6532 9.33443 12.0818 10.4035 11.2426 11.2426C10.4035 12.0818 9.33443 12.6532 8.17054 12.8847C7.00665 13.1162 5.80026 12.9974 4.7039 12.5433C3.60754 12.0892 2.67047 11.3201 2.01118 10.3334C1.35189 9.34673 1 8.18669 1 7C1 5.4087 1.63214 3.88258 2.75736 2.75736C3.88258 1.63214 5.4087 1 7 1ZM7 0C5.61553 0 4.26215 0.410543 3.11101 1.17971C1.95986 1.94888 1.06266 3.04213 0.532843 4.32122C0.00302917 5.6003 -0.135594 7.00776 0.134502 8.36563C0.404599 9.7235 1.07128 10.9708 2.05025 11.9497C3.02922 12.9287 4.2765 13.5954 5.63437 13.8655C6.99223 14.1356 8.3997 13.997 9.67878 13.4672C10.9579 12.9373 12.0511 12.0401 12.8203 10.889C13.5895 9.73785 14 8.38447 14 7C14 5.14348 13.2625 3.36301 11.9497 2.05025C10.637 0.737498 8.85651 0 7 0ZM8.875 5.125L8.115 8.125L5.115 8.885L5.875 5.885L8.875 5.125ZM9.5 3.945C9.45678 3.94055 9.41322 3.94055 9.37 3.945L5.37 4.945C5.27549 4.96511 5.18883 5.01217 5.1205 5.0805C5.05217 5.14883 5.00511 5.23549 4.985 5.33L3.985 9.33C3.96557 9.40736 3.96368 9.48808 3.97947 9.56626C3.99526 9.64444 4.02834 9.7181 4.07627 9.78185C4.1242 9.8456 4.18578 9.89782 4.2565 9.9347C4.32722 9.97158 4.40529 9.99218 4.485 9.995C4.52822 9.99945 4.57178 9.99945 4.615 9.995L8.615 8.995C8.70951 8.97489 8.79617 8.92783 8.8645 8.8595C8.93283 8.79117 8.97989 8.70451 9 8.61L10 4.61C10.0194 4.53264 10.0213 4.45192 10.0055 4.37374C9.98973 4.29556 9.95666 4.2219 9.90873 4.15815C9.8608 4.0944 9.79922 4.04218 9.7285 4.0053C9.65778 3.96842 9.57971 3.94781 9.5 3.945ZM7 6.315C6.86452 6.315 6.73208 6.35518 6.61943 6.43044C6.50679 6.50571 6.41899 6.61269 6.36714 6.73786C6.3153 6.86303 6.30173 7.00076 6.32816 7.13364C6.35459 7.26651 6.41983 7.38857 6.51563 7.48437C6.61143 7.58017 6.73349 7.64541 6.86636 7.67184C6.99924 7.69827 7.13697 7.6847 7.26214 7.63286C7.38731 7.58101 7.49429 7.49321 7.56956 7.38057C7.64482 7.26792 7.685 7.13548 7.685 7C7.685 6.81833 7.61283 6.64409 7.48437 6.51563C7.35591 6.38717 7.18167 6.315 7 6.315Z" fill="black"/>
</svg>
