<svg width="16" height="16" viewBox="0 0 16 16" fill="none" xmlns="http://www.w3.org/2000/svg">
<path d="M15.32 3.47L12.32 0.439998C12.2242 0.348631 12.0974 0.29684 11.965 0.294998H5C4.06419 0.296321 3.16709 0.668655 2.50537 1.33037C1.84366 1.99209 1.47132 2.88919 1.47 3.825V5.16C1.47 5.29261 1.52268 5.41978 1.61645 5.51355C1.71021 5.60732 1.83739 5.66 1.97 5.66C2.10261 5.66 2.22978 5.60732 2.32355 5.51355C2.41732 5.41978 2.47 5.29261 2.47 5.16V3.825C2.47132 3.15441 2.7383 2.51166 3.21248 2.03748C3.68666 1.5633 4.32941 1.29632 5 1.295H9.585V3.625C9.585 4.28804 9.84839 4.92392 10.3172 5.39277C10.7861 5.86161 11.422 6.125 12.085 6.125H14.47V12.175C14.4687 12.8456 14.2017 13.4883 13.7275 13.9625C13.2533 14.4367 12.6106 14.7037 11.94 14.705H5C4.66741 14.7069 4.33778 14.6425 4.03042 14.5154C3.72306 14.3883 3.44414 14.2012 3.21 13.965C3.16352 13.9181 3.10822 13.8809 3.04729 13.8556C2.98636 13.8302 2.921 13.8171 2.855 13.8171C2.78899 13.8171 2.72364 13.8302 2.66271 13.8556C2.60178 13.8809 2.54648 13.9181 2.5 13.965C2.40687 14.0587 2.3546 14.1854 2.3546 14.3175C2.3546 14.4496 2.40687 14.5763 2.5 14.67C2.828 14.9987 3.21771 15.2593 3.64674 15.4369C4.07576 15.6145 4.53566 15.7056 5 15.705H11.94C12.8758 15.7037 13.7729 15.3313 14.4346 14.6696C15.0963 14.0079 15.4687 13.1108 15.47 12.175V3.825C15.4697 3.75884 15.4563 3.6934 15.4306 3.63247C15.4048 3.57153 15.3672 3.51631 15.32 3.47ZM12.085 5.125C11.6872 5.125 11.3056 4.96696 11.0243 4.68566C10.743 4.40435 10.585 4.02282 10.585 3.625V1.295H11.73L14.47 4.03V5.125H12.085ZM2.165 7.665C2.165 7.79761 2.11232 7.92478 2.01855 8.01855C1.92478 8.11232 1.79761 8.165 1.665 8.165H1.03C0.897391 8.165 0.770213 8.11232 0.676445 8.01855C0.582677 7.92478 0.529999 7.79761 0.529999 7.665C0.529999 7.53239 0.582677 7.40521 0.676445 7.31144C0.770213 7.21768 0.897391 7.165 1.03 7.165H1.665C1.79761 7.165 1.92478 7.21768 2.01855 7.31144C2.11232 7.40521 2.165 7.53239 2.165 7.665ZM3.03 7.665C3.03 7.53239 3.08268 7.40521 3.17645 7.31144C3.27021 7.21768 3.39739 7.165 3.53 7.165H4.165C4.29761 7.165 4.42478 7.21768 4.51855 7.31144C4.61232 7.40521 4.665 7.53239 4.665 7.665C4.665 7.79761 4.61232 7.92478 4.51855 8.01855C4.42478 8.11232 4.29761 8.165 4.165 8.165H3.53C3.39739 8.165 3.27021 8.11232 3.17645 8.01855C3.08268 7.92478 3.03 7.79761 3.03 7.665ZM5.53 7.665C5.53 7.53239 5.58268 7.40521 5.67645 7.31144C5.77021 7.21768 5.89739 7.165 6.03 7.165H6.665C6.79761 7.165 6.92478 7.21768 7.01855 7.31144C7.11232 7.40521 7.165 7.53239 7.165 7.665C7.165 7.79761 7.11232 7.92478 7.01855 8.01855C6.92478 8.11232 6.79761 8.165 6.665 8.165H6.03C5.89739 8.165 5.77021 8.11232 5.67645 8.01855C5.58268 7.92478 5.53 7.79761 5.53 7.665ZM2.165 9.665C2.165 9.79761 2.11232 9.92478 2.01855 10.0186C1.92478 10.1123 1.79761 10.165 1.665 10.165H1.03C0.897391 10.165 0.770213 10.1123 0.676445 10.0186C0.582677 9.92478 0.529999 9.79761 0.529999 9.665C0.529999 9.53239 0.582677 9.40521 0.676445 9.31144C0.770213 9.21768 0.897391 9.165 1.03 9.165H1.665C1.79761 9.165 1.92478 9.21768 2.01855 9.31144C2.11232 9.40521 2.165 9.53239 2.165 9.665ZM3.03 9.665C3.03 9.53239 3.08268 9.40521 3.17645 9.31144C3.27021 9.21768 3.39739 9.165 3.53 9.165H4.165C4.29761 9.165 4.42478 9.21768 4.51855 9.31144C4.61232 9.40521 4.665 9.53239 4.665 9.665C4.665 9.79761 4.61232 9.92478 4.51855 10.0186C4.42478 10.1123 4.29761 10.165 4.165 10.165H3.53C3.39739 10.165 3.27021 10.1123 3.17645 10.0186C3.08268 9.92478 3.03 9.79761 3.03 9.665ZM5.53 9.665C5.53 9.53239 5.58268 9.40521 5.67645 9.31144C5.77021 9.21768 5.89739 9.165 6.03 9.165H6.665C6.79761 9.165 6.92478 9.21768 7.01855 9.31144C7.11232 9.40521 7.165 9.53239 7.165 9.665C7.165 9.79761 7.11232 9.92478 7.01855 10.0186C6.92478 10.1123 6.79761 10.165 6.665 10.165H6.03C5.89739 10.165 5.77021 10.1123 5.67645 10.0186C5.58268 9.92478 5.53 9.79761 5.53 9.665ZM2.165 11.665C2.165 11.7976 2.11232 11.9248 2.01855 12.0186C1.92478 12.1123 1.79761 12.165 1.665 12.165H1.03C0.897391 12.165 0.770213 12.1123 0.676445 12.0186C0.582677 11.9248 0.529999 11.7976 0.529999 11.665C0.529999 11.5324 0.582677 11.4052 0.676445 11.3114C0.770213 11.2177 0.897391 11.165 1.03 11.165H1.665C1.79761 11.165 1.92478 11.2177 2.01855 11.3114C2.11232 11.4052 2.165 11.5324 2.165 11.665ZM3.03 11.665C3.03 11.5324 3.08268 11.4052 3.17645 11.3114C3.27021 11.2177 3.39739 11.165 3.53 11.165H4.165C4.29761 11.165 4.42478 11.2177 4.51855 11.3114C4.61232 11.4052 4.665 11.5324 4.665 11.665C4.665 11.7976 4.61232 11.9248 4.51855 12.0186C4.42478 12.1123 4.29761 12.165 4.165 12.165H3.53C3.39739 12.165 3.27021 12.1123 3.17645 12.0186C3.08268 11.9248 3.03 11.7976 3.03 11.665ZM5.53 11.665C5.53 11.5324 5.58268 11.4052 5.67645 11.3114C5.77021 11.2177 5.89739 11.165 6.03 11.165H6.665C6.79761 11.165 6.92478 11.2177 7.01855 11.3114C7.11232 11.4052 7.165 11.5324 7.165 11.665C7.165 11.7976 7.11232 11.9248 7.01855 12.0186C6.92478 12.1123 6.79761 12.165 6.665 12.165H6.03C5.89739 12.165 5.77021 12.1123 5.67645 12.0186C5.58268 11.9248 5.53 11.7976 5.53 11.665Z" fill="black"/>
</svg>
