<svg width="14" height="14" viewBox="0 0 14 14" fill="none" xmlns="http://www.w3.org/2000/svg">
<path d="M7 8.3C6.91411 8.29974 6.82973 8.27735 6.755 8.235L0.755002 4.835C0.678053 4.79139 0.614049 4.72816 0.569519 4.65174C0.524989 4.57532 0.501528 4.48845 0.501528 4.4C0.501528 4.31156 0.524989 4.22469 0.569519 4.14827C0.614049 4.07185 0.678053 4.00861 0.755002 3.965L6.755 0.565004C6.83101 0.52112 6.91723 0.498016 7.005 0.498016C7.09277 0.498016 7.17899 0.52112 7.255 0.565004L13.255 3.965C13.332 4.00861 13.396 4.07185 13.4405 4.14827C13.485 4.22469 13.5085 4.31156 13.5085 4.4C13.5085 4.48845 13.485 4.57532 13.4405 4.65174C13.396 4.72816 13.332 4.79139 13.255 4.835L7.255 8.235C7.17733 8.27905 7.08928 8.3015 7 8.3ZM2 4.4L7 7.225L12 4.4L7 1.575L2 4.4ZM7.245 10.835L13.245 7.435C13.3604 7.3687 13.4447 7.25928 13.4794 7.13082C13.5141 7.00236 13.4963 6.86537 13.43 6.75C13.3972 6.69288 13.3534 6.64278 13.3012 6.60257C13.249 6.56235 13.1894 6.53281 13.1258 6.51564C12.9974 6.48094 12.8604 6.4987 12.745 6.565L7 9.825L1.245 6.565C1.12963 6.4987 0.992649 6.48094 0.864187 6.51564C0.735725 6.55033 0.626306 6.63463 0.560002 6.75C0.493697 6.86537 0.475939 7.00236 0.510634 7.13082C0.545328 7.25928 0.629632 7.3687 0.745002 7.435L6.745 10.835C6.82101 10.8789 6.90723 10.902 6.995 10.902C7.08277 10.902 7.16899 10.8789 7.245 10.835ZM7.245 13.435L13.245 10.035C13.3604 9.9687 13.4447 9.85928 13.4794 9.73082C13.5141 9.60236 13.4963 9.46537 13.43 9.35C13.3972 9.29288 13.3534 9.24278 13.3012 9.20257C13.249 9.16235 13.1894 9.13281 13.1258 9.11564C12.9974 9.08094 12.8604 9.0987 12.745 9.165L7 12.425L1.245 9.165C1.12963 9.0987 0.992649 9.08094 0.864187 9.11564C0.735725 9.15033 0.626306 9.23464 0.560002 9.35C0.493697 9.46537 0.475939 9.60236 0.510634 9.73082C0.545328 9.85928 0.629632 9.9687 0.745002 10.035L6.745 13.435C6.82101 13.4789 6.90723 13.502 6.995 13.502C7.08277 13.502 7.16899 13.4789 7.245 13.435Z" fill="black"/>
</svg>
