<svg width="14" height="14" viewBox="0 0 14 14" fill="none" xmlns="http://www.w3.org/2000/svg">
<path d="M2.69 0.5H5.845V5.83H0.470001V2.72C0.470001 2.13122 0.703894 1.56655 1.12022 1.15022C1.53656 0.733892 2.10122 0.5 2.69 0.5ZM11.31 0.5H8.155V5.83H13.53V2.72C13.53 2.42847 13.4726 2.13979 13.361 1.87044C13.2494 1.6011 13.0859 1.35637 12.8798 1.15022C12.6736 0.944077 12.4289 0.780553 12.1596 0.668987C11.8902 0.557422 11.6015 0.5 11.31 0.5ZM0.470001 11.28C0.470001 11.8688 0.703894 12.4334 1.12022 12.8498C1.53656 13.2661 2.10122 13.5 2.69 13.5H5.845V8.17H0.470001V11.28ZM8.155 13.5H11.31C11.8988 13.5 12.4634 13.2661 12.8798 12.8498C13.2961 12.4334 13.53 11.8688 13.53 11.28V8.17H8.155V13.5Z" fill="black"/>
</svg>