<svg width="14" height="14" viewBox="0 0 14 14" fill="none" xmlns="http://www.w3.org/2000/svg">
<path d="M14 11.705C14 11.8376 13.9473 11.9648 13.8536 12.0586C13.7598 12.1523 13.6326 12.205 13.5 12.205H2.78V13.5C2.78 13.6326 2.72732 13.7598 2.63355 13.8536C2.53979 13.9473 2.41261 14 2.28 14C2.14739 14 2.02021 13.9473 1.92645 13.8536C1.83268 13.7598 1.78 13.6326 1.78 13.5V12.205H0.5C0.367392 12.205 0.240215 12.1523 0.146447 12.0586C0.0526785 11.9648 0 11.8376 0 11.705C0 11.5724 0.0526785 11.4452 0.146447 11.3514C0.240215 11.2577 0.367392 11.205 0.5 11.205H1.78V0.5C1.78 0.367392 1.83268 0.240215 1.92645 0.146447C2.02021 0.0526785 2.14739 0 2.28 0C2.41261 0 2.53979 0.0526785 2.63355 0.146447C2.72732 0.240215 2.78 0.367392 2.78 0.5V11.205H13.5C13.6326 11.205 13.7598 11.2577 13.8536 11.3514C13.9473 11.4452 14 11.5724 14 11.705ZM4.29 8.64C4.3558 8.64038 4.42103 8.62777 4.48195 8.60289C4.54287 8.578 4.59828 8.54134 4.645 8.495L6.85 6.29L8.06 7.445C8.10772 7.49104 8.16413 7.52713 8.22593 7.55117C8.28774 7.5752 8.35371 7.5867 8.42 7.585C8.48602 7.58277 8.55094 7.56748 8.61101 7.54002C8.67108 7.51256 8.72512 7.47347 8.77 7.425L11.735 4.245V4.605C11.735 4.73761 11.7877 4.86479 11.8814 4.95855C11.9752 5.05232 12.1024 5.105 12.235 5.105C12.3676 5.105 12.4948 5.05232 12.5886 4.95855C12.6823 4.86479 12.735 4.73761 12.735 4.605V2.97C12.7374 2.92837 12.7374 2.88663 12.735 2.845C12.7327 2.8234 12.7327 2.8016 12.735 2.78C12.7229 2.75644 12.7078 2.73459 12.69 2.715C12.6725 2.67944 12.6488 2.64728 12.62 2.62C12.62 2.62 12.58 2.62 12.56 2.585C12.5304 2.55931 12.4966 2.539 12.46 2.525C12.4269 2.51984 12.3931 2.51984 12.36 2.525C12.3334 2.52273 12.3066 2.52273 12.28 2.525H10.605C10.5393 2.525 10.4743 2.53793 10.4137 2.56306C10.353 2.58819 10.2979 2.62502 10.2514 2.67145C10.205 2.71788 10.1682 2.773 10.1431 2.83366C10.1179 2.89432 10.105 2.95934 10.105 3.025C10.105 3.09066 10.1179 3.15568 10.1431 3.21634C10.1682 3.277 10.205 3.33212 10.2514 3.37855C10.2979 3.42498 10.353 3.46181 10.4137 3.48694C10.4743 3.51207 10.5393 3.525 10.605 3.525H11.105L8.405 6.43L7.205 5.28C7.11154 5.18839 6.98588 5.13707 6.855 5.13707C6.72412 5.13707 6.59846 5.18839 6.505 5.28L3.96 7.835C3.86687 7.92868 3.8146 8.05541 3.8146 8.1875C3.8146 8.31959 3.86687 8.44632 3.96 8.54C4.05466 8.61141 4.17162 8.64685 4.29 8.64Z" fill="black"/>
</svg>
