<svg width="720" height="1000" viewBox="0 0 720 1000" fill="none" xmlns="http://www.w3.org/2000/svg">
<rect width="720" height="1000" fill="#ECEDF7"/>
<path d="M660 602.27H429.823V469.07H660V602.27ZM431.227 600.865H658.595V470.475H431.227V600.865Z" fill="#696FBD"/>
<path d="M612.515 540.094H460.651V544.546H612.515V540.094Z" fill="#C7C9E6"/>
<path d="M622.978 556.695H460.651V561.555H622.978V556.695Z" fill="#C7C9E6"/>
<path d="M622.978 573.492H460.651V578.352H622.978V573.492Z" fill="#C7C9E6"/>
<path d="M513.725 515.979H460.651V527.537H513.725V515.979Z" fill="#C7C9E6"/>
<path d="M659.298 469.771H430.567V490.979H659.298V469.771Z" fill="#696FBD"/>
<path d="M641.7 487.805C641.405 487.524 644.354 483.971 648.273 479.87C652.191 475.769 655.632 472.665 655.913 472.932C656.194 473.199 653.259 476.766 649.34 480.881C645.422 484.996 641.981 488.086 641.7 487.805Z" fill="white"/>
<path d="M655.941 487.805C655.66 488.086 652.233 484.996 648.301 480.881C644.368 476.766 641.433 473.213 641.728 472.932C642.023 472.651 645.436 475.741 649.368 479.87C653.301 483.999 656.208 487.524 655.941 487.805Z" fill="white"/>
<path d="M376.762 206H148.032V337.809H376.762V206Z" fill="#8E93CE"/>
<path d="M329.994 276.336H178.129V280.788H329.994V276.336Z" fill="#C7C9E6"/>
<path d="M340.457 292.936H178.129V297.795H340.457V292.936Z" fill="#C7C9E6"/>
<path d="M340.457 309.734H178.129V314.594H340.457V309.734Z" fill="#C7C9E6"/>
<path d="M231.204 252.221H178.129V263.779H231.204V252.221Z" fill="#C7C9E6"/>
<path d="M376.762 206H148.032V227.207H376.762V206Z" fill="#696FBD"/>
<path d="M358.392 223.935C358.097 223.669 361.046 220.101 364.965 216C368.883 211.899 372.324 208.795 372.605 209.076C372.886 209.357 369.951 212.91 366.032 217.011C362.114 221.112 358.673 224.188 358.392 223.935Z" fill="white"/>
<path d="M372.605 223.936C372.324 224.216 368.897 221.127 364.965 217.012C361.032 212.896 358.097 209.357 358.392 209.076C358.687 208.795 362.1 211.885 366.032 216C369.965 220.115 372.9 223.669 372.605 223.936Z" fill="white"/>
<path d="M290.135 450.854H60V317.641H290.135V450.854ZM61.4045 449.449H288.731V319.045H61.4045V449.449Z" fill="#696FBD"/>
<path d="M242.664 388.678H90.7998V393.13H242.664V388.678Z" fill="#C7C9E6"/>
<path d="M253.127 405.279H90.7998V410.139H253.127V405.279Z" fill="#C7C9E6"/>
<path d="M253.127 422.076H90.7998V426.936H253.127V422.076Z" fill="#C7C9E6"/>
<path d="M143.874 364.564H90.7998V376.123H143.874V364.564Z" fill="#C7C9E6"/>
<path d="M289.433 318.342H60.7022V339.549H289.433V318.342Z" fill="#696FBD"/>
<path d="M555.733 481.373H285.655V723.165H555.733V481.373Z" fill="#8E93CE"/>
<path d="M299.236 405.209H87.6679V625.021H299.236V405.209Z" fill="#C7C9E6"/>
<path d="M299.236 405.209H87.6679V429.155H299.236V405.209Z" fill="#696FBD"/>
<path d="M105.139 416.937C105.101 417.806 104.808 418.644 104.298 419.347C103.787 420.051 103.081 420.589 102.268 420.895C101.454 421.201 100.569 421.261 99.7212 421.068C98.8737 420.876 98.1014 420.438 97.5002 419.81C96.899 419.183 96.4955 418.392 96.3396 417.537C96.1836 416.682 96.2823 415.8 96.6232 415C96.9641 414.201 97.5323 413.519 98.2573 413.039C98.9823 412.56 99.8321 412.304 100.701 412.303C101.903 412.332 103.045 412.836 103.876 413.705C104.708 414.573 105.162 415.735 105.139 416.937Z" fill="white"/>
<path d="M123.159 416.937C123.123 417.81 122.831 418.653 122.32 419.361C121.809 420.069 121.101 420.611 120.284 420.92C119.467 421.228 118.578 421.29 117.726 421.097C116.875 420.904 116.099 420.465 115.495 419.834C114.891 419.203 114.486 418.409 114.33 417.55C114.174 416.691 114.274 415.805 114.618 415.002C114.961 414.199 115.534 413.515 116.263 413.035C116.993 412.556 117.847 412.301 118.72 412.303C119.923 412.332 121.064 412.836 121.896 413.705C122.727 414.573 123.181 415.735 123.159 416.937Z" fill="white"/>
<path d="M141.178 416.937C141.142 417.81 140.85 418.653 140.339 419.361C139.828 420.069 139.12 420.611 138.303 420.92C137.487 421.228 136.597 421.29 135.745 421.097C134.894 420.904 134.118 420.465 133.514 419.834C132.91 419.203 132.505 418.409 132.349 417.55C132.193 416.691 132.293 415.805 132.637 415.002C132.981 414.199 133.553 413.515 134.283 413.035C135.012 412.556 135.867 412.301 136.74 412.303C137.942 412.332 139.083 412.836 139.915 413.705C140.746 414.573 141.201 415.735 141.178 416.937Z" fill="white"/>
<path d="M629.79 254.074H359.712V523.254H629.79V254.074Z" fill="#C7C9E6"/>
<path d="M629.79 254.074H359.712V285.604H629.79V254.074Z" fill="#696FBD"/>
<path d="M382.717 269.523C382.668 270.67 382.283 271.776 381.61 272.705C380.937 273.635 380.006 274.346 378.932 274.751C377.859 275.155 376.69 275.236 375.571 274.982C374.452 274.729 373.432 274.152 372.638 273.324C371.844 272.495 371.311 271.452 371.105 270.323C370.899 269.195 371.028 268.03 371.478 266.975C371.928 265.919 372.678 265.019 373.635 264.386C374.591 263.753 375.713 263.415 376.861 263.414C378.446 263.451 379.953 264.114 381.05 265.259C382.148 266.404 382.747 267.938 382.717 269.523Z" fill="white"/>
<path d="M404.725 265.396C405.504 266.242 406.016 267.298 406.199 268.433C406.382 269.567 406.226 270.731 405.753 271.778C405.279 272.825 404.507 273.71 403.534 274.322C402.561 274.933 401.429 275.245 400.28 275.219C399.131 275.192 398.015 274.827 397.072 274.171C396.128 273.514 395.399 272.595 394.974 271.527C394.55 270.458 394.449 269.289 394.684 268.164C394.92 267.039 395.481 266.008 396.298 265.2C397.443 264.11 398.973 263.519 400.552 263.556C402.132 263.593 403.632 264.255 404.725 265.396Z" fill="white"/>
<path d="M430.16 269.523C430.11 270.67 429.725 271.776 429.052 272.705C428.379 273.635 427.448 274.346 426.375 274.751C425.301 275.155 424.132 275.236 423.013 274.982C421.895 274.729 420.875 274.152 420.081 273.324C419.287 272.495 418.754 271.452 418.547 270.323C418.341 269.195 418.471 268.03 418.921 266.975C419.37 265.919 420.12 265.019 421.077 264.386C422.034 263.753 423.156 263.415 424.303 263.414C425.889 263.451 427.395 264.114 428.493 265.259C429.591 266.404 430.19 267.938 430.16 269.523Z" fill="white"/>
<path d="M571.449 794.58C571.449 794.777 473.923 794.945 353.659 794.945C233.395 794.945 135.827 794.777 135.827 794.58C135.827 794.383 233.339 794.215 353.659 794.215C473.979 794.215 571.449 794.397 571.449 794.58Z" fill="#030303"/>
<path d="M476.423 622.646C454.724 607.492 449.808 579.36 450.665 554.066C450.805 549.852 450.342 545.386 452.35 541.692C454.359 537.999 459.05 535.457 462.828 537.226C465.959 538.701 467.322 542.353 469.077 545.372C471.42 549.394 474.853 552.671 478.979 554.824C481.661 556.229 484.99 557.071 487.644 555.611C491.296 553.602 491.717 548.588 491.689 544.375C491.689 536.538 491.642 528.711 491.549 520.892C491.296 516.694 491.723 512.483 492.813 508.421C494.119 504.432 497.026 500.738 501.001 499.615C504.975 498.491 509.933 500.809 510.832 504.91C510.987 506.647 511.029 508.392 510.958 510.134C511.071 511.89 511.885 513.814 513.529 514.348C515.172 514.881 516.885 513.659 518.149 512.423C522.475 508.21 525.424 502.719 528.163 497.297C530.902 491.876 533.584 486.3 537.517 481.68C541.449 477.059 546.885 473.393 552.966 473.042C559.047 472.691 565.381 476.427 566.898 482.326C568.415 488.225 564.974 494.25 561.28 499.039C555.706 506.148 549.136 512.415 541.772 517.648C540.335 518.433 539.188 519.659 538.5 521.145C537.587 523.954 540.241 526.763 543.008 527.648C546.14 528.687 549.539 528.364 552.839 528.757C556.14 529.151 559.651 530.583 560.901 533.673C562.614 537.971 559.019 542.465 555.494 545.414C548.415 551.313 540.378 555.954 531.73 559.136C528.641 560.259 525.396 561.257 522.896 563.42C520.396 565.582 518.908 569.36 520.41 572.324C521.913 575.287 525.775 576.228 529.02 575.624C532.264 575.02 535.143 573.279 538.233 572.113C544.005 569.936 551.449 570.329 555.087 575.315C556.214 577.033 556.927 578.988 557.171 581.028C557.414 583.068 557.182 585.136 556.491 587.071C555.085 590.921 552.922 594.45 550.129 597.45C540.93 608.44 528.978 616.791 515.495 621.649C502.11 626.283 489.709 627.547 476.409 622.674" fill="#2E37A4"/>
<path d="M560.719 476.512C560.719 476.512 560.592 476.652 560.311 476.905L559.061 478.014C557.966 478.998 556.351 480.43 554.314 482.326C548.54 487.687 543.179 493.476 538.275 499.643C535.143 503.534 531.899 507.944 528.444 512.733C524.989 517.522 521.422 522.69 517.882 528.182C514.109 533.973 510.654 539.965 507.532 546.131C505.902 549.347 504.47 552.704 502.995 556.131L498.641 566.594C492.902 579.773 487.904 593.263 483.67 607C480.259 618.24 477.908 629.774 476.647 641.452C475.831 649.333 475.699 657.27 476.254 665.173C476.479 667.982 476.69 670.131 476.886 671.592C476.97 672.294 477.027 672.856 477.083 673.263V673.839C477.022 673.656 476.98 673.468 476.956 673.277C476.886 672.87 476.802 672.322 476.69 671.62C476.437 670.215 476.17 667.996 475.917 665.187C475.24 657.269 475.287 649.305 476.058 641.396C477.24 629.668 479.54 618.08 482.925 606.79C487.124 593.014 492.109 579.49 497.855 566.285L502.321 555.864C503.796 552.451 505.242 549.066 506.885 545.836C510.029 539.651 513.513 533.645 517.321 527.845C520.916 522.227 524.54 517.143 527.952 512.396C531.365 507.649 534.666 503.211 537.784 499.334C542.737 493.183 548.171 487.435 554.033 482.144C556.112 480.276 557.769 478.871 558.893 477.93L560.199 476.877C560.359 476.737 560.533 476.615 560.719 476.512Z" fill="#030303"/>
<path d="M507.068 545.808C506.87 545.229 506.733 544.632 506.661 544.024C506.436 542.859 506.183 541.215 505.888 539.081C505.284 534.867 504.666 529.095 504.006 522.705C503.346 516.314 502.602 510.528 501.984 506.357C501.661 504.278 501.38 502.607 501.183 501.441C501.03 500.844 500.95 500.231 500.945 499.615C501.186 500.178 501.361 500.767 501.464 501.371C501.773 502.522 502.124 504.18 502.518 506.272C503.318 510.486 504.105 516.216 504.765 522.62C505.425 529.025 505.987 534.643 506.422 539.01C506.633 540.977 506.815 542.648 506.956 543.982C507.065 544.584 507.103 545.197 507.068 545.808Z" fill="#030303"/>
<path d="M561.112 535.722C560.428 535.871 559.732 535.955 559.033 535.975C557.629 536.101 555.634 536.27 553.163 536.551C548.219 537.084 541.421 538.068 533.963 539.472C526.506 540.876 519.807 542.463 514.989 543.685C512.588 544.303 510.649 544.865 509.371 545.244C508.689 545.487 507.983 545.656 507.265 545.75C507.914 545.424 508.591 545.156 509.287 544.949C510.607 544.486 512.517 543.84 514.905 543.152C519.694 541.747 526.393 540.076 533.879 538.643C540.22 537.431 546.619 536.54 553.05 535.975C555.536 535.764 557.544 535.68 558.949 535.652C559.67 535.603 560.395 535.626 561.112 535.722Z" fill="#030303"/>
<path d="M483.614 605.807C483.464 605.603 483.341 605.382 483.248 605.147L482.321 603.194C481.521 601.495 480.439 598.981 479.147 595.905C476.535 589.726 473.207 581.074 469.667 571.468C466.128 561.861 462.87 553.21 460.398 546.96C459.19 543.926 458.193 541.44 457.448 539.586L456.662 537.578C456.553 537.346 456.477 537.1 456.437 536.848C456.587 537.051 456.71 537.273 456.802 537.508L457.729 539.46C458.516 541.159 459.611 543.673 460.903 546.749C463.516 552.929 466.844 561.58 470.384 571.187C473.923 580.793 477.181 589.445 479.653 595.695C480.861 598.728 481.858 601.214 482.588 603.068C482.911 603.869 483.178 604.473 483.389 605.076C483.498 605.308 483.574 605.554 483.614 605.807Z" fill="#030303"/>
<path d="M555.353 582.676C555.129 582.805 554.888 582.904 554.637 582.971L552.559 583.673L544.876 586.159C538.388 588.266 529.427 591.271 519.596 594.586C509.765 597.9 500.762 600.85 494.231 602.816C490.973 603.813 488.319 604.571 486.479 605.077L484.358 605.625C484.111 605.703 483.857 605.755 483.6 605.779C483.824 605.65 484.065 605.551 484.316 605.484L486.394 604.782L494.077 602.296C500.565 600.189 509.526 597.184 519.357 593.869C529.188 590.555 538.177 587.605 544.708 585.639C547.98 584.642 550.62 583.884 552.474 583.378L554.595 582.83C554.842 582.752 555.096 582.7 555.353 582.676Z" fill="#030303"/>
<path d="M526.085 241.999L518.852 244.583L515.748 235.131C510.046 217.702 491.872 208.446 475.173 214.331C458.474 220.216 449.584 239.33 455.286 256.76L458.39 266.212L451.128 268.81C448.36 269.884 446.111 271.984 444.851 274.672C443.59 277.361 443.414 280.433 444.359 283.248L464.485 344.749C464.903 346.143 465.596 347.439 466.525 348.559C467.453 349.679 468.597 350.601 469.889 351.271C471.181 351.94 472.594 352.343 474.044 352.456C475.495 352.568 476.953 352.388 478.333 351.926L553.289 325.115C556.094 324.043 558.375 321.925 559.65 319.206C560.926 316.487 561.097 313.379 560.129 310.537L539.989 249.035C539.56 247.645 538.856 246.356 537.918 245.245C536.98 244.133 535.828 243.221 534.531 242.565C533.233 241.908 531.816 241.52 530.365 241.422C528.914 241.325 527.458 241.521 526.085 241.999ZM468.951 251.83C467.414 247.298 467.69 242.347 469.721 238.014C471.753 233.681 475.383 230.303 479.85 228.586C482.056 227.831 484.391 227.529 486.716 227.696C489.042 227.864 491.309 228.498 493.384 229.561C495.459 230.624 497.299 232.094 498.793 233.884C500.288 235.673 501.406 237.745 502.082 239.976L505.172 249.428L472.041 261.282L468.951 251.83ZM511.085 306.408L516.225 322.109C516.32 322.424 516.289 322.763 516.14 323.056C515.991 323.349 515.735 323.573 515.425 323.682L508.22 326.253C507.933 326.332 507.627 326.298 507.365 326.156C507.103 326.015 506.906 325.778 506.815 325.494L501.633 309.862C498.775 309.707 496.033 308.682 493.774 306.925C491.515 305.168 489.847 302.763 488.993 300.031C487.771 296.42 487.994 292.477 489.615 289.026C491.235 285.576 494.128 282.886 497.686 281.52C499.444 280.92 501.304 280.68 503.156 280.813C505.008 280.947 506.814 281.452 508.467 282.299C510.119 283.146 511.585 284.316 512.775 285.741C513.966 287.166 514.857 288.816 515.397 290.593C516.3 293.368 516.375 296.346 515.612 299.162C514.848 301.979 513.28 304.511 511.099 306.45L511.085 306.408Z" fill="#2E37A4"/>
<path d="M518.529 244.413C518.529 244.61 505.116 249.652 488.431 255.649C471.746 261.646 458.137 266.463 458.066 266.323C457.996 266.182 471.479 261.098 488.178 255.087C504.877 249.076 518.458 244.231 518.529 244.413Z" fill="#030303"/>
<path d="M534.455 246.998C534.517 247.12 534.569 247.247 534.61 247.377C534.722 247.658 534.848 248.023 535.017 248.473C535.382 249.498 535.888 250.916 536.52 252.686L541.913 268.388C544.16 275.045 546.843 282.938 549.82 291.702C551.224 296.098 552.882 300.677 554.427 305.494C555.254 307.976 555.611 310.591 555.48 313.204C555.361 314.564 554.974 315.886 554.342 317.095C553.667 318.3 552.766 319.363 551.688 320.227C549.518 321.811 547.11 323.039 544.553 323.864L537.32 326.463L523.627 331.364L500.439 339.622L484.779 345.128L480.566 346.532L479.442 346.897C479.322 346.951 479.194 346.984 479.063 346.996C479.063 346.996 479.176 346.996 479.414 346.827L480.51 346.392L484.723 344.805L500.299 339.075L523.444 330.648L537.11 325.704L544.343 323.092C546.826 322.3 549.165 321.109 551.267 319.567C552.27 318.765 553.109 317.778 553.738 316.659C554.333 315.541 554.692 314.313 554.792 313.05C554.921 310.532 554.578 308.012 553.781 305.62C552.264 300.845 550.663 296.224 549.216 291.829C546.295 283.051 543.598 275.129 541.463 268.472C539.329 261.815 537.531 256.464 536.295 252.7C535.705 250.86 535.256 249.428 534.891 248.388L534.554 247.265C534.511 247.18 534.478 247.09 534.455 246.998Z" fill="#030303"/>
<path d="M494.906 227.631C494.906 227.631 494.161 227.265 492.785 226.704C490.823 225.95 488.748 225.532 486.647 225.468C483.534 225.361 480.435 225.946 477.575 227.181C474.096 228.719 471.122 231.206 468.993 234.358C466.85 237.5 465.7 241.214 465.693 245.018C465.722 248.135 466.195 251.233 467.097 254.217C467.828 256.773 468.586 258.81 469.092 260.228C469.39 260.949 469.634 261.69 469.822 262.447C469.423 261.774 469.089 261.063 468.825 260.326C468.249 258.922 467.42 256.928 466.606 254.357C465.606 251.342 465.061 248.194 464.991 245.018C464.953 241.07 466.13 237.207 468.361 233.951C470.564 230.684 473.66 228.12 477.28 226.563C480.229 225.321 483.424 224.774 486.619 224.962C488.766 225.071 490.874 225.571 492.841 226.437C493.367 226.679 493.874 226.961 494.358 227.279C494.558 227.367 494.742 227.486 494.906 227.631Z" fill="#030303"/>
<path d="M495.552 282.587C495.776 282.452 496.011 282.334 496.254 282.236C496.957 281.919 497.685 281.661 498.431 281.464C499.615 281.114 500.836 280.907 502.068 280.846C503.745 280.756 505.423 281.009 506.998 281.59C510.593 282.854 513.894 286.52 515.523 291.422C516.304 294.052 516.304 296.853 515.523 299.483C514.657 302.338 513.104 304.937 511.001 307.053L511.085 306.674C512.953 311.8 514.989 317.362 517.096 323.162L517.222 323.513L516.871 323.64L513.655 324.707L506.633 327.053L506.282 327.165L506.169 326.814C504.245 320.999 502.139 315.578 500.551 310.255L500.86 310.494C498.115 310.266 495.497 309.235 493.333 307.531C491.374 306.023 489.769 304.105 488.628 301.913C487.598 299.969 487.085 297.792 487.139 295.593C487.204 293.345 487.765 291.139 488.783 289.134C489.8 287.128 491.248 285.372 493.024 283.992C493.754 283.399 494.574 282.925 495.453 282.587C494.66 283.058 493.891 283.569 493.15 284.118C491.2 285.768 489.705 287.891 488.81 290.284C488.042 292.088 487.682 294.04 487.758 296C487.833 297.959 488.341 299.878 489.246 301.618C490.368 303.727 491.935 305.567 493.838 307.011C495.903 308.631 498.399 309.608 501.015 309.82H501.254L501.324 310.031C502.869 315.255 504.99 320.719 506.942 326.561L506.478 326.336L513.501 323.991L516.703 322.91L516.478 323.387C514.385 317.587 512.363 312.011 510.509 306.885V306.674L510.678 306.505C512.719 304.477 514.242 301.986 515.116 299.244C515.861 296.728 515.861 294.05 515.116 291.534C513.585 286.815 510.425 283.233 506.998 281.969C505.481 281.385 503.862 281.112 502.237 281.169C501.024 281.197 499.818 281.362 498.641 281.66C496.549 282.18 495.566 282.658 495.552 282.587Z" fill="#030303"/>
<path d="M452.14 688.113L311.848 687.467C303.746 687.422 295.993 684.164 290.292 678.407C284.591 672.651 281.408 664.867 281.441 656.765L282.93 305.073C282.947 301.06 283.754 297.088 285.306 293.387C286.859 289.685 289.125 286.326 291.976 283.5C294.828 280.675 298.208 278.44 301.924 276.921C305.639 275.403 309.618 274.632 313.632 274.653L453.909 275.299C462.011 275.34 469.765 278.594 475.469 284.348C481.173 290.102 484.36 297.885 484.33 305.986L482.841 657.664C482.825 661.679 482.017 665.652 480.465 669.355C478.914 673.058 476.648 676.419 473.797 679.247C470.946 682.074 467.566 684.312 463.85 685.834C460.134 687.355 456.155 688.129 452.14 688.113Z" fill="#2E37A4"/>
<path d="M453.699 287.392H426.508C425.621 287.408 424.746 287.599 423.932 287.954C423.119 288.309 422.384 288.821 421.768 289.46C421.152 290.099 420.669 290.853 420.345 291.679C420.021 292.505 419.862 293.387 419.879 294.274V299.203C419.896 300.09 419.738 300.971 419.413 301.796C419.089 302.622 418.605 303.375 417.989 304.013C417.374 304.651 416.638 305.161 415.825 305.514C415.012 305.867 414.137 306.057 413.25 306.071L360.246 305.833C358.453 305.785 356.752 305.027 355.517 303.726C354.282 302.426 353.613 300.688 353.659 298.895V293.965C353.704 292.174 353.038 290.438 351.806 289.138C350.574 287.837 348.877 287.078 347.086 287.027H337.522L313.716 286.914C308.054 286.881 302.609 289.092 298.573 293.064C294.538 297.036 292.241 302.446 292.186 308.108L290.781 651.387C290.768 654.196 291.309 656.98 292.372 659.58C293.435 662.18 294.999 664.545 296.976 666.54C298.954 668.536 301.304 670.122 303.895 671.209C306.485 672.296 309.264 672.862 312.073 672.875L452.069 673.521C454.88 673.534 457.666 672.993 460.268 671.929C462.87 670.866 465.236 669.3 467.233 667.321C469.23 665.343 470.817 662.991 471.905 660.399C472.992 657.807 473.559 655.026 473.572 652.215L474.976 308.936C475.01 303.258 472.787 297.799 468.797 293.759C464.807 289.719 459.377 287.429 453.699 287.392Z" fill="white"/>
<path d="M364.853 609.361C364.802 608.929 364.595 608.594 364.231 608.355C363.868 608.116 363.422 607.997 362.893 607.997C362.507 607.997 362.169 608.06 361.879 608.185C361.592 608.31 361.368 608.482 361.206 608.7C361.047 608.919 360.967 609.168 360.967 609.446C360.967 609.679 361.022 609.879 361.133 610.047C361.247 610.212 361.392 610.349 361.568 610.46C361.744 610.568 361.929 610.658 362.122 610.729C362.315 610.797 362.493 610.852 362.655 610.895L363.541 611.134C363.768 611.193 364.021 611.276 364.299 611.381C364.581 611.486 364.849 611.629 365.105 611.811C365.363 611.99 365.576 612.22 365.744 612.501C365.912 612.783 365.995 613.128 365.995 613.537C365.995 614.009 365.872 614.435 365.625 614.815C365.38 615.196 365.022 615.499 364.551 615.723C364.082 615.947 363.513 616.06 362.842 616.06C362.217 616.06 361.676 615.959 361.218 615.757C360.764 615.555 360.406 615.274 360.145 614.913C359.886 614.553 359.74 614.134 359.706 613.656H360.797C360.825 613.986 360.936 614.259 361.129 614.474C361.325 614.687 361.572 614.847 361.87 614.952C362.172 615.054 362.495 615.105 362.842 615.105C363.245 615.105 363.608 615.04 363.929 614.909C364.25 614.776 364.504 614.591 364.691 614.355C364.879 614.116 364.973 613.838 364.973 613.52C364.973 613.23 364.892 612.994 364.73 612.812C364.568 612.631 364.355 612.483 364.091 612.369C363.826 612.256 363.541 612.156 363.234 612.071L362.16 611.764C361.478 611.568 360.939 611.288 360.541 610.925C360.143 610.561 359.944 610.085 359.944 609.497C359.944 609.009 360.076 608.582 360.341 608.219C360.608 607.852 360.966 607.568 361.414 607.366C361.866 607.162 362.37 607.06 362.927 607.06C363.49 607.06 363.99 607.161 364.427 607.362C364.865 607.561 365.211 607.834 365.467 608.18C365.726 608.527 365.862 608.92 365.876 609.361H364.853ZM368.79 607.179V615.906H367.733V607.179H368.79ZM377.829 607.179V615.906H376.807L372.051 609.054H371.966V615.906H370.909V607.179H371.932L376.704 614.048H376.789V607.179H377.829ZM385.91 609.906C385.816 609.619 385.693 609.362 385.539 609.135C385.389 608.905 385.208 608.709 384.998 608.547C384.791 608.385 384.555 608.261 384.291 608.176C384.026 608.091 383.737 608.048 383.421 608.048C382.904 608.048 382.434 608.182 382.011 608.449C381.587 608.716 381.251 609.109 381.001 609.629C380.751 610.149 380.626 610.787 380.626 611.543C380.626 612.298 380.752 612.936 381.005 613.456C381.258 613.976 381.6 614.369 382.032 614.636C382.464 614.903 382.95 615.037 383.489 615.037C383.989 615.037 384.43 614.93 384.81 614.717C385.194 614.501 385.492 614.197 385.705 613.805C385.921 613.411 386.029 612.946 386.029 612.412L386.353 612.48H383.728V611.543H387.052V612.48C387.052 613.199 386.899 613.824 386.592 614.355C386.288 614.886 385.867 615.298 385.33 615.591C384.796 615.881 384.183 616.026 383.489 616.026C382.717 616.026 382.038 615.844 381.452 615.48C380.87 615.116 380.416 614.599 380.089 613.929C379.765 613.259 379.603 612.463 379.603 611.543C379.603 610.852 379.695 610.232 379.88 609.68C380.068 609.126 380.332 608.655 380.673 608.266C381.014 607.876 381.417 607.578 381.883 607.371C382.349 607.163 382.862 607.06 383.421 607.06C383.881 607.06 384.31 607.129 384.708 607.268C385.109 607.405 385.465 607.599 385.778 607.852C386.093 608.102 386.356 608.402 386.566 608.751C386.776 609.098 386.921 609.483 387.001 609.906H385.91ZM397.964 607.179H399.021V612.957C399.021 613.554 398.88 614.087 398.599 614.555C398.321 615.021 397.927 615.389 397.419 615.659C396.91 615.926 396.314 616.06 395.629 616.06C394.944 616.06 394.348 615.926 393.839 615.659C393.331 615.389 392.936 615.021 392.655 614.555C392.376 614.087 392.237 613.554 392.237 612.957V607.179H393.294V612.872C393.294 613.298 393.388 613.678 393.575 614.01C393.763 614.339 394.03 614.599 394.376 614.79C394.726 614.977 395.143 615.071 395.629 615.071C396.115 615.071 396.532 614.977 396.882 614.79C397.231 614.599 397.498 614.339 397.683 614.01C397.87 613.678 397.964 613.298 397.964 612.872V607.179ZM401.131 615.906V607.179H404.08C404.765 607.179 405.325 607.303 405.759 607.55C406.197 607.794 406.521 608.125 406.731 608.543C406.941 608.96 407.046 609.426 407.046 609.94C407.046 610.455 406.941 610.922 406.731 611.342C406.524 611.763 406.202 612.098 405.768 612.348C405.333 612.595 404.776 612.719 404.097 612.719H401.984V611.781H404.063C404.532 611.781 404.908 611.7 405.193 611.538C405.477 611.376 405.683 611.158 405.81 610.882C405.941 610.604 406.006 610.29 406.006 609.94C406.006 609.591 405.941 609.278 405.81 609.003C405.683 608.727 405.475 608.511 405.188 608.355C404.901 608.196 404.521 608.116 404.046 608.116H402.188V615.906H401.131Z" fill="#CED1D7"/>
<path d="M351.53 388.303L315.407 388.139L315.377 394.768L351.5 394.932L351.53 388.303Z" fill="#2E37A4"/>
<path opacity="0.1" d="M351.53 388.303L315.407 388.139L315.377 394.768L351.5 394.932L351.53 388.303Z" fill="#030303"/>
<path d="M457.42 429.003C457.704 428.974 457.983 428.908 458.249 428.806C458.638 428.654 458.976 428.396 459.224 428.06C459.473 427.725 459.621 427.326 459.654 426.91C459.654 424.677 459.654 421.419 459.654 417.233C459.654 415.141 459.654 412.795 459.654 410.211C459.654 409.579 459.654 408.919 459.654 408.259C459.745 407.618 459.606 406.966 459.26 406.419C459.067 406.157 458.815 405.943 458.525 405.794C458.235 405.645 457.915 405.566 457.589 405.562H455.398H435.104L317.634 405.127C317.334 405.122 317.036 405.189 316.767 405.324C316.498 405.458 316.266 405.656 316.089 405.899C315.75 406.449 315.621 407.102 315.724 407.739C315.724 409.144 315.724 410.548 315.724 411.953C315.724 414.761 315.724 417.57 315.724 420.379C315.724 421.784 315.724 423.188 315.724 424.593C315.666 425.247 315.666 425.905 315.724 426.559C315.798 426.839 315.935 427.099 316.125 427.318C316.315 427.537 316.553 427.71 316.82 427.823C317.097 427.933 317.393 427.986 317.691 427.977H324.839L356.032 428.146L408.84 428.469L444.443 428.75L454.12 428.862H456.634C457.21 428.862 457.491 428.862 457.491 428.862H456.634H454.12H444.443H408.84L356.032 428.694L324.839 428.567H317.691C317.297 428.583 316.905 428.516 316.539 428.371C316.169 428.213 315.84 427.973 315.577 427.668C315.314 427.364 315.125 427.004 315.022 426.615C314.941 426.246 314.912 425.868 314.938 425.492V424.452C314.938 423.048 314.938 421.643 314.938 420.239C314.938 417.43 314.938 414.621 314.938 411.812C314.938 410.408 314.938 409.003 314.938 407.599C314.911 407.225 314.911 406.849 314.938 406.475C314.99 406.062 315.15 405.67 315.401 405.337C315.644 404.998 315.964 404.723 316.336 404.535C316.708 404.346 317.119 404.251 317.536 404.256L435.005 404.902L455.3 405.043H457.491C457.877 405.043 458.257 405.136 458.599 405.315C458.941 405.493 459.236 405.751 459.457 406.068C459.853 406.678 460.013 407.412 459.906 408.132C459.906 408.792 459.906 409.453 459.906 410.085C459.906 412.641 459.906 414.986 459.906 417.107C459.906 421.32 459.808 424.551 459.78 426.798C459.746 427.23 459.589 427.643 459.327 427.989C459.066 428.335 458.711 428.599 458.305 428.75C458.039 428.915 457.733 429.002 457.42 429.003Z" fill="#696FBD"/>
<path d="M392.324 412.178H326.258V418.371H392.324V412.178Z" fill="#2E37A4"/>
<path opacity="0.2" d="M392.324 412.178H326.258V418.371H392.324V412.178Z" fill="white"/>
<path d="M351.284 448.775L315.161 448.611L315.131 455.24L351.253 455.404L351.284 448.775Z" fill="#2E37A4"/>
<path opacity="0.1" d="M351.284 448.775L315.161 448.611L315.131 455.24L351.253 455.404L351.284 448.775Z" fill="#030303"/>
<path d="M456.507 489.479C456.791 489.444 457.073 489.392 457.35 489.324C457.742 489.2 458.103 488.992 458.409 488.716C458.714 488.44 458.956 488.101 459.12 487.723C459.341 487.156 459.427 486.546 459.373 485.94C459.373 485.265 459.373 484.535 459.373 483.721C459.373 482.091 459.373 480.237 459.373 478.103V469.184C459.44 468.539 459.297 467.889 458.965 467.33C458.619 466.758 458.074 466.333 457.434 466.137C456.735 466.012 456.023 465.974 455.314 466.024H435.104L318.042 465.589C317.412 465.59 316.804 465.821 316.332 466.236C315.859 466.652 315.553 467.226 315.471 467.85C315.471 469.184 315.471 470.659 315.471 472.064C315.471 474.872 315.471 477.681 315.471 480.49C315.471 481.895 315.471 483.299 315.471 484.704C315.419 485.36 315.447 486.02 315.556 486.67C315.731 487.239 316.092 487.734 316.581 488.074C317.1 488.404 317.709 488.561 318.323 488.524H320.275H324.334L355.414 488.678L408.04 489.001L443.516 489.282L453.165 489.395H443.516H408.04L355.386 489.338L324.306 489.226H318.196C317.436 489.271 316.683 489.069 316.047 488.65C315.408 488.208 314.942 487.558 314.727 486.81C314.601 486.097 314.563 485.37 314.615 484.647C314.615 483.243 314.615 481.839 314.615 480.434C314.615 477.625 314.615 474.816 314.615 472.007C314.615 470.603 314.615 469.198 314.615 467.794C314.717 466.991 315.109 466.253 315.716 465.718C316.324 465.182 317.106 464.887 317.915 464.887L434.977 465.533L455.187 465.687C455.94 465.641 456.695 465.693 457.434 465.842C458.164 466.08 458.78 466.581 459.162 467.246C459.525 467.865 459.683 468.583 459.611 469.297C459.611 469.957 459.611 470.603 459.611 471.249C459.611 473.791 459.611 476.122 459.611 478.271C459.611 480.42 459.611 482.232 459.611 483.889C459.611 484.69 459.611 485.434 459.611 486.122C459.662 486.75 459.561 487.381 459.316 487.962C459.134 488.35 458.87 488.693 458.543 488.97C458.216 489.246 457.833 489.448 457.42 489.563C457.113 489.588 456.805 489.56 456.507 489.479Z" fill="#696FBD"/>
<path d="M351.011 511.879L314.889 511.715L314.859 518.344L350.981 518.508L351.011 511.879Z" fill="#2E37A4"/>
<path opacity="0.1" d="M351.011 511.879L314.889 511.715L314.859 518.344L350.981 518.508L351.011 511.879Z" fill="#030303"/>
<path d="M456.227 552.554C456.511 552.52 456.792 552.469 457.069 552.4C457.46 552.275 457.82 552.07 458.125 551.796C458.43 551.523 458.673 551.187 458.839 550.812C459.059 550.245 459.146 549.635 459.092 549.029C459.092 548.341 459.092 547.624 459.092 546.796C459.092 545.181 459.092 543.313 459.092 541.178V532.26C459.159 531.614 459.016 530.964 458.684 530.406C458.33 529.844 457.787 529.426 457.154 529.226C456.455 529.096 455.742 529.054 455.033 529.099H434.823L317.761 528.664C317.131 528.666 316.523 528.896 316.051 529.312C315.578 529.728 315.272 530.301 315.191 530.925C315.191 532.33 315.191 533.734 315.191 535.139C315.191 537.948 315.191 540.757 315.191 543.565C315.191 544.97 315.191 546.374 315.191 547.779C315.138 548.431 315.167 549.086 315.275 549.731C315.443 550.304 315.806 550.801 316.3 551.136C316.816 551.472 317.428 551.63 318.042 551.585H324.151L355.232 551.753L407.857 552.076L443.334 552.357L452.982 552.47H443.334H407.857L355.232 552.315L324.151 552.189H318.042C317.281 552.24 316.526 552.038 315.893 551.613C315.254 551.17 314.787 550.52 314.573 549.773C314.447 549.06 314.409 548.333 314.46 547.61C314.46 546.206 314.46 544.801 314.46 543.397C314.46 540.588 314.46 537.779 314.46 534.97C314.46 533.566 314.46 532.161 314.46 530.687C314.56 529.885 314.948 529.147 315.554 528.611C316.159 528.076 316.939 527.78 317.747 527.779L434.809 528.425L455.019 528.58C455.771 528.534 456.527 528.586 457.266 528.734C457.996 528.973 458.611 529.473 458.993 530.139C459.357 530.757 459.514 531.475 459.443 532.189C459.443 532.849 459.443 533.51 459.443 534.142C459.443 536.684 459.443 539.015 459.443 541.164C459.443 543.313 459.443 545.124 459.443 546.782C459.443 547.582 459.443 548.327 459.443 549.015C459.497 549.643 459.395 550.275 459.148 550.855C458.966 551.242 458.702 551.586 458.375 551.862C458.047 552.138 457.664 552.341 457.252 552.456C456.923 552.568 456.571 552.602 456.227 552.554Z" fill="#696FBD"/>
<path d="M390.913 474.403L324.848 474.104L324.82 480.297L390.885 480.597L390.913 474.403Z" fill="#2E37A4"/>
<path opacity="0.2" d="M390.913 474.403L324.848 474.104L324.82 480.297L390.885 480.597L390.913 474.403Z" fill="white"/>
<path d="M330.822 541.093C330.781 541.658 330.574 542.198 330.229 542.647C329.883 543.096 329.413 543.433 328.878 543.617C328.342 543.802 327.764 543.825 327.215 543.683C326.667 543.542 326.172 543.243 325.792 542.823C325.412 542.403 325.163 541.88 325.077 541.321C324.991 540.761 325.071 540.188 325.308 539.673C325.545 539.158 325.927 538.725 326.408 538.425C326.889 538.126 327.447 537.974 328.013 537.989C328.796 538.033 329.53 538.383 330.055 538.964C330.581 539.545 330.857 540.31 330.822 541.093Z" fill="#2E37A4"/>
<path d="M339.769 541.136C339.796 541.532 339.742 541.929 339.61 542.303C339.477 542.677 339.269 543.02 338.998 543.31C338.728 543.601 338.4 543.832 338.036 543.99C337.672 544.149 337.279 544.23 336.882 544.23C336.486 544.23 336.093 544.149 335.729 543.99C335.365 543.832 335.037 543.601 334.767 543.31C334.496 543.02 334.288 542.677 334.155 542.303C334.023 541.929 333.969 541.532 333.996 541.136C333.969 540.74 334.023 540.342 334.155 539.968C334.288 539.594 334.496 539.251 334.767 538.961C335.037 538.671 335.365 538.439 335.729 538.281C336.093 538.123 336.486 538.041 336.882 538.041C337.279 538.041 337.672 538.123 338.036 538.281C338.4 538.439 338.728 538.671 338.998 538.961C339.269 539.251 339.477 539.594 339.61 539.968C339.742 540.342 339.796 540.74 339.769 541.136Z" fill="#2E37A4"/>
<path d="M348.729 541.179C348.688 541.744 348.481 542.284 348.136 542.733C347.79 543.182 347.32 543.519 346.784 543.703C346.249 543.888 345.671 543.91 345.122 543.769C344.574 543.628 344.079 543.329 343.699 542.909C343.318 542.489 343.07 541.966 342.984 541.407C342.898 540.847 342.978 540.274 343.215 539.759C343.452 539.244 343.834 538.811 344.315 538.511C344.796 538.212 345.354 538.06 345.92 538.075C346.701 538.122 347.433 538.474 347.958 539.054C348.483 539.634 348.76 540.397 348.729 541.179Z" fill="#2E37A4"/>
<path d="M357.676 541.22C357.634 541.785 357.428 542.325 357.082 542.774C356.736 543.223 356.267 543.56 355.731 543.744C355.195 543.929 354.617 543.951 354.069 543.81C353.52 543.669 353.025 543.37 352.645 542.95C352.265 542.53 352.016 542.007 351.93 541.448C351.845 540.888 351.925 540.315 352.161 539.8C352.398 539.285 352.78 538.852 353.261 538.552C353.742 538.253 354.3 538.101 354.867 538.116C355.648 538.163 356.379 538.515 356.904 539.095C357.43 539.675 357.706 540.438 357.676 541.22Z" fill="#2E37A4"/>
<path d="M366.622 541.247C366.583 541.813 366.379 542.355 366.035 542.806C365.691 543.256 365.222 543.596 364.686 543.782C364.15 543.968 363.572 543.993 363.022 543.853C362.473 543.713 361.976 543.415 361.595 542.996C361.213 542.576 360.964 542.054 360.877 541.493C360.79 540.933 360.869 540.359 361.106 539.844C361.342 539.328 361.725 538.894 362.206 538.594C362.687 538.294 363.246 538.142 363.813 538.157C364.592 538.204 365.321 538.554 365.846 539.131C366.371 539.708 366.649 540.468 366.622 541.247Z" fill="#2E37A4"/>
<path d="M375.582 541.291C375.544 541.854 375.342 542.393 375.001 542.843C374.66 543.292 374.195 543.632 373.664 543.821C373.132 544.01 372.557 544.039 372.009 543.905C371.461 543.771 370.964 543.479 370.579 543.067C370.195 542.654 369.939 542.138 369.844 541.582C369.749 541.026 369.819 540.454 370.044 539.937C370.27 539.42 370.642 538.98 371.114 538.672C371.587 538.363 372.139 538.2 372.703 538.201C373.494 538.23 374.242 538.572 374.781 539.151C375.321 539.73 375.609 540.5 375.582 541.291Z" fill="#2E37A4"/>
<path d="M384.529 541.333C384.557 541.729 384.502 542.126 384.37 542.5C384.237 542.875 384.029 543.217 383.759 543.508C383.488 543.798 383.16 544.029 382.796 544.188C382.432 544.346 382.04 544.428 381.643 544.428C381.246 544.428 380.853 544.346 380.489 544.188C380.125 544.029 379.798 543.798 379.527 543.508C379.256 543.217 379.048 542.875 378.916 542.5C378.783 542.126 378.729 541.729 378.757 541.333C378.729 540.937 378.783 540.54 378.916 540.165C379.048 539.791 379.256 539.448 379.527 539.158C379.798 538.868 380.125 538.636 380.489 538.478C380.853 538.32 381.246 538.238 381.643 538.238C382.04 538.238 382.432 538.32 382.796 538.478C383.16 538.636 383.488 538.868 383.759 539.158C384.029 539.448 384.237 539.791 384.37 540.165C384.502 540.54 384.557 540.937 384.529 541.333Z" fill="#2E37A4"/>
<path d="M393.475 541.375C393.437 541.938 393.235 542.477 392.894 542.927C392.553 543.376 392.088 543.716 391.557 543.905C391.025 544.094 390.45 544.123 389.902 543.989C389.354 543.855 388.857 543.563 388.472 543.151C388.088 542.738 387.832 542.222 387.737 541.666C387.642 541.11 387.712 540.538 387.937 540.021C388.163 539.504 388.535 539.064 389.007 538.756C389.48 538.447 390.032 538.284 390.596 538.285C391.387 538.314 392.134 538.656 392.674 539.235C393.214 539.814 393.502 540.584 393.475 541.375Z" fill="#2E37A4"/>
<path d="M402.422 541.415C402.383 541.981 402.179 542.523 401.835 542.973C401.49 543.424 401.021 543.764 400.486 543.95C399.95 544.136 399.372 544.161 398.822 544.021C398.272 543.881 397.776 543.583 397.394 543.164C397.013 542.744 396.763 542.221 396.676 541.661C396.589 541.101 396.669 540.527 396.905 540.012C397.142 539.496 397.524 539.061 398.006 538.762C398.487 538.462 399.046 538.31 399.613 538.325C400.391 538.372 401.121 538.722 401.646 539.299C402.17 539.876 402.449 540.635 402.422 541.415Z" fill="#2E37A4"/>
<g opacity="0.2">
<path d="M330.822 541.093C330.781 541.658 330.574 542.198 330.229 542.647C329.883 543.096 329.413 543.433 328.878 543.617C328.342 543.802 327.764 543.825 327.215 543.683C326.667 543.542 326.172 543.243 325.792 542.823C325.412 542.403 325.163 541.88 325.077 541.321C324.991 540.761 325.071 540.188 325.308 539.673C325.545 539.158 325.927 538.725 326.408 538.425C326.889 538.126 327.447 537.974 328.013 537.989C328.796 538.033 329.53 538.383 330.055 538.964C330.581 539.545 330.857 540.31 330.822 541.093Z" fill="white"/>
<path d="M339.769 541.136C339.796 541.532 339.742 541.929 339.61 542.303C339.477 542.677 339.269 543.02 338.998 543.31C338.728 543.601 338.4 543.832 338.036 543.99C337.672 544.149 337.279 544.23 336.882 544.23C336.486 544.23 336.093 544.149 335.729 543.99C335.365 543.832 335.037 543.601 334.767 543.31C334.496 543.02 334.288 542.677 334.155 542.303C334.023 541.929 333.969 541.532 333.996 541.136C333.969 540.74 334.023 540.342 334.155 539.968C334.288 539.594 334.496 539.251 334.767 538.961C335.037 538.671 335.365 538.439 335.729 538.281C336.093 538.123 336.486 538.041 336.882 538.041C337.279 538.041 337.672 538.123 338.036 538.281C338.4 538.439 338.728 538.671 338.998 538.961C339.269 539.251 339.477 539.594 339.61 539.968C339.742 540.342 339.796 540.74 339.769 541.136Z" fill="white"/>
<path d="M348.729 541.177C348.688 541.742 348.481 542.282 348.136 542.731C347.79 543.18 347.32 543.517 346.784 543.701C346.249 543.886 345.671 543.909 345.122 543.767C344.574 543.626 344.079 543.327 343.699 542.907C343.318 542.487 343.07 541.964 342.984 541.405C342.898 540.845 342.978 540.272 343.215 539.757C343.451 539.242 343.834 538.809 344.315 538.509C344.796 538.21 345.354 538.058 345.92 538.073C346.701 538.12 347.433 538.472 347.958 539.052C348.483 539.632 348.76 540.395 348.729 541.177Z" fill="white"/>
<path d="M357.676 541.218C357.634 541.783 357.428 542.323 357.082 542.772C356.736 543.221 356.266 543.558 355.731 543.742C355.195 543.927 354.617 543.95 354.069 543.808C353.52 543.667 353.025 543.368 352.645 542.948C352.265 542.528 352.016 542.006 351.93 541.446C351.844 540.886 351.925 540.313 352.161 539.798C352.398 539.283 352.78 538.85 353.261 538.55C353.742 538.251 354.3 538.099 354.867 538.114C355.648 538.161 356.379 538.513 356.904 539.093C357.43 539.673 357.706 540.436 357.676 541.218Z" fill="white"/>
<path d="M366.622 541.247C366.583 541.813 366.379 542.355 366.035 542.806C365.691 543.256 365.222 543.596 364.686 543.782C364.15 543.968 363.572 543.993 363.022 543.853C362.473 543.713 361.976 543.415 361.595 542.996C361.213 542.576 360.964 542.054 360.877 541.493C360.79 540.933 360.869 540.359 361.106 539.844C361.342 539.328 361.725 538.894 362.206 538.594C362.687 538.294 363.246 538.142 363.813 538.157C364.592 538.204 365.321 538.554 365.846 539.131C366.371 539.708 366.649 540.468 366.622 541.247Z" fill="white"/>
<path d="M375.582 541.289C375.544 541.852 375.342 542.391 375.001 542.841C374.66 543.29 374.195 543.63 373.664 543.819C373.132 544.008 372.557 544.037 372.009 543.903C371.461 543.769 370.964 543.478 370.579 543.065C370.195 542.652 369.939 542.136 369.844 541.58C369.749 541.024 369.819 540.452 370.044 539.935C370.27 539.418 370.642 538.978 371.114 538.67C371.587 538.361 372.139 538.198 372.703 538.199C373.494 538.229 374.242 538.57 374.781 539.149C375.321 539.728 375.609 540.498 375.582 541.289Z" fill="white"/>
<path d="M384.529 541.331C384.556 541.727 384.502 542.124 384.37 542.498C384.237 542.873 384.029 543.215 383.759 543.506C383.488 543.796 383.16 544.027 382.796 544.186C382.432 544.344 382.04 544.426 381.643 544.426C381.246 544.426 380.853 544.344 380.489 544.186C380.125 544.027 379.798 543.796 379.527 543.506C379.256 543.215 379.048 542.873 378.916 542.498C378.783 542.124 378.729 541.727 378.757 541.331C378.729 540.935 378.783 540.538 378.916 540.163C379.048 539.789 379.256 539.446 379.527 539.156C379.798 538.866 380.125 538.635 380.489 538.476C380.853 538.318 381.246 538.236 381.643 538.236C382.04 538.236 382.432 538.318 382.796 538.476C383.16 538.635 383.488 538.866 383.759 539.156C384.029 539.446 384.237 539.789 384.37 540.163C384.502 540.538 384.556 540.935 384.529 541.331Z" fill="white"/>
<path d="M393.475 541.375C393.437 541.938 393.235 542.477 392.894 542.927C392.553 543.376 392.088 543.716 391.557 543.905C391.025 544.094 390.45 544.123 389.902 543.989C389.354 543.855 388.857 543.563 388.472 543.151C388.088 542.738 387.832 542.222 387.737 541.666C387.642 541.11 387.712 540.538 387.937 540.021C388.163 539.504 388.535 539.064 389.007 538.756C389.48 538.447 390.032 538.284 390.596 538.285C391.387 538.314 392.134 538.656 392.674 539.235C393.214 539.814 393.502 540.584 393.475 541.375Z" fill="white"/>
<path d="M402.422 541.417C402.383 541.983 402.179 542.525 401.835 542.975C401.49 543.426 401.021 543.766 400.486 543.952C399.95 544.138 399.372 544.163 398.822 544.023C398.272 543.883 397.776 543.585 397.394 543.166C397.013 542.746 396.763 542.223 396.676 541.663C396.589 541.103 396.669 540.529 396.905 540.014C397.142 539.498 397.524 539.063 398.006 538.764C398.487 538.464 399.046 538.312 399.613 538.327C400.391 538.374 401.121 538.724 401.646 539.301C402.17 539.878 402.449 540.637 402.422 541.417Z" fill="white"/>
</g>
<path d="M389.711 338.668C390.687 338.239 391.515 337.532 392.092 336.635C392.668 335.739 392.969 334.692 392.956 333.626C392.992 332.933 392.887 332.24 392.647 331.589C392.407 330.938 392.036 330.343 391.559 329.839C391.081 329.336 390.506 328.935 389.868 328.661C389.231 328.387 388.544 328.246 387.85 328.246C387.156 328.246 386.47 328.387 385.832 328.661C385.195 328.935 384.62 329.336 384.142 329.839C383.664 330.343 383.294 330.938 383.054 331.589C382.814 332.24 382.709 332.933 382.745 333.626C382.724 334.703 383.022 335.762 383.602 336.669C384.182 337.576 385.017 338.292 386.003 338.724C378.139 339.904 378.49 348.443 378.49 348.443L397.085 348.528C397.085 348.528 397.52 339.834 389.711 338.668Z" fill="#2E37A4"/>
<path opacity="0.1" d="M389.711 338.668C390.687 338.239 391.515 337.532 392.092 336.635C392.668 335.739 392.969 334.692 392.956 333.626C392.992 332.933 392.887 332.24 392.647 331.589C392.407 330.938 392.036 330.343 391.559 329.839C391.081 329.336 390.506 328.935 389.868 328.661C389.231 328.387 388.544 328.246 387.85 328.246C387.156 328.246 386.47 328.387 385.832 328.661C385.195 328.935 384.62 329.336 384.142 329.839C383.664 330.343 383.294 330.938 383.054 331.589C382.814 332.24 382.709 332.933 382.745 333.626C382.724 334.703 383.022 335.762 383.602 336.669C384.182 337.576 385.017 338.292 386.003 338.724C378.139 339.904 378.49 348.443 378.49 348.443L397.085 348.528C397.085 348.528 397.52 339.834 389.711 338.668Z" fill="#030303"/>
<path d="M419.928 354.035L353.652 353.734L353.616 361.655L419.892 361.956L419.928 354.035Z" fill="#2E37A4"/>
<path opacity="0.2" d="M419.928 354.035L353.652 353.734L353.616 361.655L419.892 361.956L419.928 354.035Z" fill="white"/>
<path d="M176.275 395.078H175.615L173.705 395.219C172.672 395.281 171.644 395.417 170.629 395.626C169.973 395.718 169.321 395.845 168.677 396.005L166.5 396.609C162.795 397.746 159.299 399.477 156.149 401.735C151.988 404.756 148.513 408.624 145.953 413.083C144.448 415.654 143.251 418.393 142.386 421.243C141.476 424.341 140.953 427.539 140.827 430.766C140.743 432.46 140.771 434.159 140.911 435.85C140.911 436.707 141.15 437.563 141.262 438.434C141.357 439.312 141.521 440.181 141.754 441.032C143.017 446.668 145.579 451.931 149.237 456.4C152.895 460.87 157.546 464.423 162.821 466.776C166.638 468.423 170.73 469.343 174.885 469.487C179.177 469.723 183.473 469.107 187.525 467.675L188.761 467.211H188.93L189.07 467.296L206.78 476.284L206.261 476.734C204.365 470.863 202.539 465.175 200.769 459.712V459.501L200.924 459.346C205.22 455.019 208.409 449.72 210.221 443.897C211.862 438.574 212.341 432.961 211.626 427.437C210.989 422.528 209.411 417.788 206.977 413.477C204.879 409.774 202.173 406.45 198.971 403.645C196.33 401.426 193.407 399.565 190.278 398.112C187.91 397.091 185.444 396.314 182.918 395.795L180.11 395.331L178.073 395.177L176.837 395.092H176.416C176.556 395.077 176.697 395.077 176.837 395.092H178.087L180.124 395.177L182.933 395.584C185.49 396.065 187.989 396.814 190.39 397.817C193.573 399.253 196.549 401.109 199.238 403.336C202.498 406.129 205.262 409.453 207.412 413.168C209.915 417.525 211.542 422.329 212.201 427.311C212.977 432.92 212.531 438.631 210.895 444.052C209.072 449.995 205.833 455.407 201.457 459.824L201.542 459.459C203.311 464.922 205.151 470.61 207.061 476.467L207.328 477.324L206.527 476.916L188.817 467.942H189.126L187.862 468.405C183.732 469.859 179.356 470.489 174.983 470.259C170.739 470.098 166.561 469.145 162.666 467.45C155.236 464.268 149.054 458.738 145.068 451.706C143.234 448.459 141.894 444.956 141.094 441.313C140.874 440.44 140.71 439.553 140.602 438.659C140.49 437.774 140.307 436.903 140.265 436.032C139.885 431.035 140.413 426.01 141.824 421.201C142.711 418.312 143.942 415.539 145.49 412.943C148.11 408.443 151.658 404.551 155.897 401.525C159.098 399.261 162.653 397.543 166.416 396.441L168.621 395.879C169.27 395.728 169.926 395.611 170.587 395.528C171.612 395.338 172.65 395.225 173.691 395.191L175.615 395.12C175.834 395.091 176.055 395.077 176.275 395.078Z" fill="#2E37A4"/>
<path d="M184.281 427.831H181.683L176.065 419.938V414.755C176.065 414.755 172.048 414.502 172.525 421.286C173.003 428.069 172.525 426.342 172.525 426.342C172.525 426.342 164 426.342 163.298 427.114C162.596 427.887 162.554 436.117 162.455 440.71C162.402 441.817 162.719 442.91 163.358 443.816C163.997 444.722 164.92 445.388 165.981 445.709C166.278 445.792 166.585 445.834 166.894 445.836C169.028 445.836 179.885 444.108 179.885 444.108H184.365L184.281 427.831Z" fill="#2E37A4"/>
<path d="M191.71 426.439L190.109 444.192H185.671V426.805L191.71 426.439Z" fill="#2E37A4"/>
<path d="M244.645 787.858V775.85L223.114 775.695L222.932 793.855L224.266 793.953C230.207 794.333 254.49 794.894 258.479 793.658C262.917 792.282 244.645 787.858 244.645 787.858Z" fill="#2E37A4"/>
<path d="M258.984 792.533C258.984 792.73 250.923 792.898 240.993 792.898C231.063 792.898 223.002 792.73 223.002 792.533C223.002 792.337 231.063 792.168 240.993 792.168C250.923 792.168 258.984 792.337 258.984 792.533Z" fill="#030303"/>
<path d="M245.024 790.315C244.841 790.217 245.024 789.585 245.459 788.91C245.895 788.236 246.484 787.955 246.625 788.096C246.765 788.236 246.47 788.77 246.049 789.346C245.628 789.922 245.206 790.413 245.024 790.315Z" fill="#030303"/>
<path d="M246.4 791.102C246.204 791.102 246.302 790.316 246.723 789.571C247.145 788.827 247.706 788.377 247.861 788.49C248.015 788.602 247.762 789.234 247.369 789.894C246.976 790.554 246.583 791.172 246.4 791.102Z" fill="#030303"/>
<path d="M229.49 792.478C229.406 792.478 229.083 792.225 228.62 791.692C228.054 791.006 227.424 790.375 226.738 789.81C226.063 789.271 225.259 788.917 224.406 788.784C223.746 788.7 223.325 788.784 223.283 788.7C223.241 788.616 223.648 788.321 224.42 788.265C225.44 788.243 226.434 788.581 227.229 789.22C227.974 789.827 228.602 790.564 229.083 791.397C229.406 792.015 229.575 792.422 229.49 792.478Z" fill="#030303"/>
<path d="M245.094 788.053C245.192 788.221 244.827 788.642 244.209 788.867C243.591 789.092 243.043 789.008 243.015 788.867C242.987 788.727 243.423 788.432 243.956 788.235C244.49 788.038 244.982 787.884 245.094 788.053Z" fill="#030303"/>
<path d="M244.757 786.887C244.757 787.098 244.195 787.266 243.465 787.28C242.735 787.294 242.159 787.126 242.173 786.929C242.187 786.733 242.763 786.55 243.465 786.536C244.167 786.522 244.729 786.69 244.757 786.887Z" fill="#030303"/>
<path d="M297.663 787.858V775.85L276.133 775.695L275.95 793.672L277.284 793.771C283.225 794.15 307.522 794.894 311.497 793.658C315.935 792.282 297.663 787.858 297.663 787.858Z" fill="#2E37A4"/>
<path d="M312.003 792.562C312.003 792.759 303.955 792.928 294.011 792.928C284.068 792.928 276.034 792.759 276.034 792.562C276.034 792.366 284.082 792.197 294.011 792.197C303.941 792.197 312.003 792.366 312.003 792.562Z" fill="#030303"/>
<path d="M298.042 790.315C297.874 790.217 298.042 789.585 298.478 788.91C298.913 788.236 299.503 787.955 299.643 788.096C299.784 788.236 299.489 788.77 299.067 789.346C298.646 789.922 298.225 790.413 298.042 790.315Z" fill="#030303"/>
<path d="M299.419 791.102C299.236 791.102 299.32 790.316 299.756 789.571C300.191 788.827 300.739 788.377 300.893 788.49C301.048 788.602 300.781 789.234 300.388 789.894C299.994 790.554 299.615 791.172 299.419 791.102Z" fill="#030303"/>
<path d="M282.509 792.478C282.425 792.478 282.116 792.225 281.638 791.692C281.072 791.006 280.442 790.375 279.756 789.81C279.081 789.271 278.278 788.917 277.425 788.784C276.779 788.7 276.343 788.784 276.301 788.7C276.259 788.616 276.666 788.321 277.439 788.265C278.458 788.243 279.453 788.581 280.248 789.22C280.996 789.823 281.625 790.561 282.102 791.397C282.425 792.015 282.593 792.422 282.509 792.478Z" fill="#030303"/>
<path d="M298.112 788.053C298.211 788.221 297.846 788.642 297.228 788.867C296.61 789.092 296.062 789.008 296.034 788.867C296.006 788.727 296.441 788.432 296.975 788.235C297.509 788.038 298 787.884 298.112 788.053Z" fill="#030303"/>
<path d="M297.803 786.887C297.803 787.098 297.242 787.266 296.511 787.28C295.781 787.294 295.219 787.126 295.233 786.929C295.247 786.733 295.809 786.55 296.511 786.536C297.214 786.522 297.803 786.69 297.803 786.887Z" fill="#030303"/>
<path d="M376.987 431.262C376.425 430.686 375.035 430.967 375.035 430.967C375.174 430.159 375.174 429.332 375.035 428.524C374.782 427.737 373.012 427.892 373.012 427.892C372.931 427.229 372.931 426.559 373.012 425.897C373.026 425.75 372.995 425.603 372.922 425.475C372.849 425.346 372.738 425.244 372.605 425.181C371.768 424.84 370.868 424.677 369.965 424.703C368.883 423.931 373.265 417.793 374.894 415.827C376.524 413.861 376.229 412.33 374.782 412.33C373.785 412.33 368.673 418.229 367.1 420.209C365.527 422.189 361.355 427.695 361.215 423.299C361.074 418.903 359.305 415.588 358.195 415.027C357.086 414.465 355.906 415.785 356.51 417.007C357.041 418.395 357.372 419.852 357.493 421.333C357.646 422.513 357.593 423.71 357.339 424.872C356.873 427.034 356.239 429.157 355.443 431.22H355.33C355.33 431.22 324.685 460.616 322.466 462.708C320.485 464.59 280.655 460.475 272.664 459.632C269.948 459.235 267.206 459.047 264.462 459.071C260.992 459.225 260.375 459.717 256.92 459.759C248.194 459.856 239.489 460.621 230.881 462.048C226.983 462.711 223.342 464.431 220.355 467.022C217.368 469.612 215.15 472.974 213.943 476.739C205.895 501.879 187.666 561.386 184.449 594.812C182.019 599.219 179.825 603.753 177.876 608.393C175.615 614.545 176.163 614.755 176.921 614.896C178.972 615.275 181.303 604.236 182.174 606.904C183.045 609.573 177.75 620.064 179.899 620.373C182.708 620.766 184.941 609.137 185.208 608.211C185.475 607.284 186.865 607.579 186.612 608.449C186.205 609.685 182.258 622.789 185.011 623.21C186.528 623.435 186.696 620.668 186.696 620.668C186.696 620.668 189.505 608.126 190.783 608.379C192.062 608.632 190.699 616.033 190.053 618.505C189.407 620.977 190.306 622.227 191.626 621.623C192.525 621.202 194.674 613.688 195.264 611.244C195.854 608.8 197.328 602.031 199.309 605.949C201.289 609.868 204.294 612.143 205.53 612.199C205.809 612.167 206.071 612.052 206.284 611.87C206.497 611.687 206.65 611.445 206.724 611.175C206.798 610.904 206.79 610.618 206.699 610.353C206.609 610.087 206.442 609.855 206.218 609.685C205.155 608.647 204.243 607.465 203.508 606.174C202.853 605.168 202.377 604.056 202.103 602.888C201.537 600.558 201.208 598.177 201.12 595.781L200.896 594.377C204.042 578.801 213.1 533.086 226.176 503.887L231.541 514.926L233.872 523.1L219.575 558.394L280.557 557.594L271.456 522.566L282.509 486.05C294.461 486.317 325.148 486.767 330.261 484.449C336.693 481.64 369.965 439.619 369.965 439.619C372.133 437.934 374.21 436.133 376.186 434.226C376.186 434.226 378.209 432.526 376.987 431.262Z" fill="#F7AC94"/>
<path d="M216.892 532.314C218.662 526.275 227.749 496.416 227.749 496.416C227.749 496.416 232.215 520.755 231.035 523.69C229.95 526.203 228.668 528.626 227.201 530.937C216.892 546.625 218.241 554.476 218.241 554.476L280.529 552.58C280.669 543.872 275.515 523.62 274.447 520.39C273.38 517.16 276.933 506.584 276.933 506.584C276.933 506.584 283.955 499.435 283.703 495.756C283.569 492.45 283.16 489.162 282.481 485.924L320.401 487.329L319.207 461.627L264.742 456.178C262.846 461.529 245.698 458.902 245.698 458.902C227.187 459.52 226.035 462.919 218.339 468.902C210.643 474.885 197.904 526.232 197.904 526.232L216.892 532.314Z" fill="#2E37A4"/>
<path d="M253.717 526.233C252.638 526.426 251.539 526.483 250.445 526.402C248.409 526.402 245.614 526.261 242.538 525.952C239.462 525.643 236.681 525.208 234.701 524.815C233.609 524.674 232.538 524.4 231.513 524C232.611 524 233.707 524.104 234.785 524.309C236.78 524.562 239.546 524.913 242.608 525.222C245.67 525.531 248.451 525.742 250.459 525.882C251.554 525.896 252.645 526.013 253.717 526.233Z" fill="#030303"/>
<path d="M257.987 520.938C256.907 521.466 255.765 521.858 254.588 522.103C248.985 523.576 243.204 524.261 237.412 524.14C236.213 524.179 235.014 524.065 233.844 523.803C235.027 523.653 236.22 523.592 237.412 523.62C239.617 523.55 242.65 523.395 245.993 523.002C249.336 522.609 252.313 522.047 254.42 521.598C255.59 521.285 256.783 521.064 257.987 520.938Z" fill="#030303"/>
<path d="M278.942 497.316C278.913 498.387 278.767 499.452 278.506 500.49C278.141 502.443 277.579 505.111 276.863 508.032C276.147 510.954 275.458 513.65 274.84 515.476C274.592 516.521 274.224 517.534 273.745 518.496C273.823 517.428 274.021 516.373 274.335 515.35C274.869 513.159 275.472 510.631 276.147 507.864C276.821 505.097 277.467 502.569 278.001 500.378C278.191 499.324 278.507 498.296 278.942 497.316Z" fill="#030303"/>
<path d="M217.552 528.733C214.303 528.232 211.097 527.485 207.96 526.5C204.755 525.751 201.61 524.765 198.55 523.551C201.798 524.061 205.004 524.807 208.143 525.784C211.348 526.531 214.494 527.517 217.552 528.733Z" fill="#030303"/>
<path d="M283.155 485.616C282.625 485.707 282.084 485.707 281.554 485.616C280.087 485.465 278.646 485.12 277.27 484.59C274.973 483.727 272.881 482.393 271.13 480.673C269.379 478.953 268.007 476.886 267.102 474.605C266.102 472.095 265.675 469.393 265.852 466.697C265.915 464.474 266.58 462.309 267.776 460.433C268.618 459.17 269.875 458.241 271.329 457.807C271.718 457.7 272.12 457.648 272.523 457.653C272.804 457.653 272.944 457.653 272.944 457.653C272.944 457.653 272.355 457.653 271.414 458.032C270.079 458.525 268.947 459.449 268.197 460.658C266.287 463.664 265.754 469.155 267.79 474.282C268.738 476.699 270.222 478.869 272.13 480.63C273.693 482.07 275.494 483.23 277.453 484.057C279.291 484.783 281.203 485.306 283.155 485.616Z" fill="#030303"/>
<path d="M315.893 486.824C315.542 482.517 315.429 478.194 315.556 473.875C315.446 469.559 315.577 465.24 315.949 460.939C316.301 465.242 316.413 469.56 316.286 473.875C316.404 478.195 316.273 482.518 315.893 486.824Z" fill="#030303"/>
<path d="M264.377 457.751C264.532 454.619 264.855 451.08 264.855 451.08C264.855 451.08 272.607 450.223 273.071 442.218C273.534 434.212 273.071 415.744 273.071 415.744L259.026 408.553L243.437 420.814L245.838 460.841L260.136 461.754C261.229 461.784 262.289 461.38 263.084 460.629C263.879 459.879 264.344 458.844 264.377 457.751Z" fill="#F7AC94"/>
<path d="M265.768 435.883C265.768 435.883 265.768 436.038 265.641 436.22C265.537 436.353 265.402 436.458 265.247 436.526C265.093 436.595 264.925 436.625 264.756 436.614C263.858 436.614 262.987 435.574 262.678 434.366C262.531 433.781 262.531 433.168 262.678 432.583C262.707 432.327 262.799 432.083 262.946 431.872C263.093 431.661 263.291 431.49 263.521 431.375C263.709 431.297 263.922 431.297 264.11 431.375C264.25 431.444 264.364 431.558 264.433 431.698C264.532 431.937 264.433 432.091 264.433 432.077C264.433 432.063 264.433 431.937 264.293 431.796C264.22 431.696 264.112 431.626 263.99 431.6C263.868 431.574 263.741 431.594 263.633 431.656C263.461 431.76 263.318 431.906 263.217 432.08C263.116 432.255 263.061 432.452 263.057 432.653C262.939 433.175 262.939 433.718 263.057 434.24C263.338 435.336 264.096 436.22 264.771 436.305C264.902 436.322 265.037 436.313 265.165 436.277C265.293 436.241 265.412 436.178 265.515 436.094C265.683 435.982 265.74 435.869 265.768 435.883Z" fill="#F7AC94"/>
<path d="M277.888 411.418C276.807 407.739 272.888 405.913 269.321 404.902C263.886 403.357 258.015 402.683 252.706 404.635C247.397 406.587 241.021 410.014 241.021 415.871C237.889 415.618 236.091 418.356 234.855 421.755C234.065 423.826 233.592 426.004 233.451 428.216C233.058 435.884 230.909 446.474 225.937 452.092C223.128 455.224 219.238 457.386 217.637 461.291C216.232 464.676 216.963 468.692 215.656 472.119C214.491 475.139 211.921 477.288 210.039 479.914C208.121 482.893 206.993 486.311 206.76 489.847C206.526 493.382 207.195 496.919 208.704 500.124C210.224 503.248 212.364 506.029 214.994 508.299C217.623 510.568 220.687 512.279 223.999 513.326C230.559 515.322 237.555 515.39 244.153 513.523C249.105 512.339 253.724 510.048 257.664 506.824C261.695 503.532 264.464 498.947 265.501 493.846C266.498 488.116 264.897 482.288 263.703 476.585C259.967 458.566 261.035 457.625 265.754 440.898C265.866 440.603 265.922 440.294 266.006 439.999C266.091 439.704 266.133 439.564 266.189 439.339C266.323 438.678 266.394 438.005 266.4 437.331C265.71 437.587 264.962 437.641 264.243 437.487C263.524 437.333 262.864 436.976 262.341 436.46C261.816 435.909 261.45 435.227 261.282 434.485C261.114 433.743 261.15 432.97 261.386 432.247C261.717 431.456 262.211 430.743 262.835 430.155C263.459 429.567 264.2 429.117 265.009 428.834C266.568 428.188 268.24 427.851 269.77 427.134C273.015 425.589 275.262 422.387 276.793 419.031C278.051 416.704 278.44 414.005 277.888 411.418Z" fill="#030303"/>
<path d="M266.329 436.264C266.626 436.702 266.871 437.173 267.06 437.668C267.481 438.553 268.043 439.803 268.661 441.25L268.773 441.516H268.478L267.074 441.643C266.105 441.643 265.29 441.825 264.335 441.811C264.252 441.793 264.175 441.753 264.111 441.697C264.047 441.64 263.999 441.569 263.97 441.488C263.928 441.361 263.928 441.223 263.97 441.095C264.002 440.906 264.045 440.718 264.096 440.533L264.349 439.536C264.476 438.871 264.674 438.221 264.939 437.598C264.913 438.276 264.814 438.949 264.644 439.606L264.447 440.603C264.377 440.941 264.251 441.46 264.447 441.418C265.15 441.418 266.147 441.264 267.074 441.207L268.478 441.081L268.296 441.39C267.692 439.985 267.186 438.665 266.891 437.752C266.633 437.286 266.443 436.785 266.329 436.264Z" fill="#2E37A4"/>
<path d="M218.241 554.478L280.529 552.582L307.635 658.394L302.649 779.768H269.714L273.745 660.978L249.658 587.314L253.366 784.473L220.081 784.964L216.583 599.646C216.429 594.491 214.744 582.876 215.376 577.764L218.241 554.478Z" fill="#030303"/>
<path d="M257.945 588.817C256.925 588.881 255.902 588.82 254.897 588.634C253.015 588.409 250.445 588.016 247.622 587.454C244.799 586.893 242.271 586.247 240.445 585.727C239.469 585.512 238.525 585.172 237.636 584.716C237.636 584.505 242.215 585.6 247.833 586.738C253.451 587.876 257.973 588.606 257.945 588.817Z" fill="#2E37A4"/>
<path d="M302.312 773.109C302.312 773.306 294.854 773.474 285.655 773.474C276.456 773.474 268.984 773.306 268.984 773.109C268.984 772.913 276.442 772.744 285.655 772.744C294.868 772.744 302.312 772.899 302.312 773.109Z" fill="#2E37A4"/>
<path d="M253.071 779.346C253.071 779.556 245.824 779.711 236.892 779.711C227.96 779.711 220.727 779.556 220.727 779.346C220.727 779.135 227.974 778.98 236.892 778.98C245.81 778.98 253.071 779.149 253.071 779.346Z" fill="#2E37A4"/>
<path d="M248.774 778.84C248.577 778.84 247.706 735.765 246.821 682.634C245.937 629.503 245.417 586.4 245.6 586.4C245.782 586.4 246.681 629.461 247.552 682.62C248.423 735.779 248.984 778.84 248.774 778.84Z" fill="#2E37A4"/>
<path d="M297.888 773.111C297.872 772.92 297.872 772.727 297.888 772.535V770.85C297.888 769.333 298 767.156 298.084 764.39C298.281 758.772 298.562 750.612 298.913 740.612C299.671 720.5 300.739 692.776 301.904 662.173C301.904 661.878 301.904 661.597 301.904 661.344V661.442C294.531 631.949 287.86 605.18 283.014 585.812L277.397 562.905C276.751 560.223 276.259 558.13 275.908 556.669C275.739 555.981 275.627 555.448 275.529 555.04C275.474 554.858 275.441 554.669 275.43 554.479C275.503 554.656 275.56 554.839 275.599 555.026C275.711 555.419 275.852 555.953 276.048 556.627C276.428 558.032 276.975 560.167 277.677 562.835C279.082 568.256 281.062 576.065 283.534 585.686C288.422 605.039 295.163 631.738 302.635 661.274V661.372C302.635 661.625 302.635 661.92 302.635 662.201C301.385 692.804 300.247 720.514 299.419 740.626C298.983 750.64 298.618 758.744 298.365 764.39C298.225 767.198 298.112 769.333 298.042 770.85C298.042 771.566 297.958 772.128 297.944 772.535C297.946 772.729 297.927 772.922 297.888 773.111Z" fill="#2E37A4"/>
<path d="M287.144 658.871C284.778 659.649 282.341 660.19 279.868 660.486C276.835 661.006 274.251 661.371 273.085 661.427V661.146C273.464 661.259 273.661 661.329 273.661 661.385C273.661 661.441 273.422 661.385 273.029 661.385H272.186L273.029 661.132C274.124 660.809 276.708 660.276 279.742 659.728C282.175 659.2 284.654 658.913 287.144 658.871Z" fill="#2E37A4"/>
<path d="M286.568 662.901C284.377 663.001 282.182 662.903 280.009 662.606C277.815 662.561 275.63 662.321 273.478 661.89C277.867 661.532 282.286 661.873 286.568 662.901Z" fill="#2E37A4"/>
<path opacity="0.2" d="M217.974 556.711C218.712 557.658 219.641 558.439 220.701 559.003C221.761 559.567 222.928 559.901 224.125 559.984C226.634 560.281 229.171 560.233 231.667 559.843C247.748 558.059 264.785 556.416 280.529 552.582C260.15 553.72 238.619 553.34 218.241 554.478L218.03 556.22" fill="#030303"/>
<g opacity="0.2">
<path d="M238.971 585.432L250.459 630.009L249.658 587.314L238.971 585.432Z" fill="#030303"/>
</g>
</svg>
