<svg width="720" height="1000" viewBox="0 0 720 1000" fill="none" xmlns="http://www.w3.org/2000/svg">
<rect width="720" height="1000" fill="#ECEDF7"/>
<path d="M660 668.879H60V669.179H660V668.879Z" fill="#0A1B39"/>
<path d="M599.88 688.193H573.864V688.493H599.88V688.193Z" fill="#0A1B39"/>
<path d="M473.604 681.977H432.672V682.277H473.604V681.977Z" fill="#0A1B39"/>
<path d="M589.344 677.055H535.908V677.355H589.344V677.055Z" fill="#0A1B39"/>
<path d="M267.624 683.102H254.256V683.402H267.624V683.102Z" fill="#0A1B39"/>
<path d="M243.564 683.102H197.496V683.402H243.564V683.102Z" fill="#0A1B39"/>
<path d="M172.812 678.039H139.572V678.339H172.812V678.039Z" fill="#0A1B39"/>
<path d="M344.4 615.362H112.692C110.877 615.358 109.137 614.635 107.855 613.35C106.572 612.066 105.852 610.325 105.852 608.509V282.792C105.868 280.987 106.595 279.262 107.876 277.99C109.156 276.718 110.887 276.003 112.692 276H344.4C346.217 276 347.96 276.722 349.245 278.007C350.53 279.292 351.252 281.035 351.252 282.852V608.509C351.252 610.327 350.53 612.07 349.245 613.355C347.96 614.64 346.217 615.362 344.4 615.362ZM112.692 276.24C110.956 276.243 109.293 276.935 108.067 278.163C106.841 279.392 106.152 281.056 106.152 282.792V608.509C106.152 610.245 106.841 611.91 108.067 613.138C109.293 614.367 110.956 615.058 112.692 615.062H344.4C346.137 615.058 347.801 614.367 349.03 613.139C350.258 611.911 350.949 610.246 350.952 608.509V282.792C350.949 281.055 350.258 279.391 349.03 278.163C347.801 276.934 346.137 276.243 344.4 276.24H112.692Z" fill="#0A1B39"/>
<path d="M603.972 615.362H372.252C370.436 615.358 368.695 614.635 367.41 613.351C366.126 612.067 365.403 610.326 365.4 608.509V282.792C365.419 280.986 366.149 279.261 367.431 277.989C368.714 276.718 370.446 276.003 372.252 276H603.972C605.775 276.006 607.502 276.723 608.78 277.994C610.059 279.265 610.784 280.989 610.8 282.792V608.509C610.8 610.323 610.081 612.062 608.801 613.346C607.522 614.63 605.785 615.355 603.972 615.362ZM372.252 276.24C370.515 276.243 368.85 276.934 367.622 278.163C366.394 279.391 365.703 281.055 365.7 282.792V608.509C365.703 610.246 366.394 611.911 367.622 613.139C368.85 614.367 370.515 615.058 372.252 615.062H603.972C605.709 615.058 607.373 614.367 608.601 613.139C609.829 611.911 610.521 610.246 610.524 608.509V282.792C610.521 281.055 609.829 279.391 608.601 278.163C607.373 276.934 605.709 276.243 603.972 276.24H372.252Z" fill="#0A1B39"/>
<path d="M198 419.559C204.655 419.559 211.037 416.916 215.743 412.21C220.448 407.504 223.092 401.122 223.092 394.467C223.092 387.812 220.448 381.43 215.743 376.724C211.037 372.019 204.655 369.375 198 369.375H194.916V419.559H198Z" fill="#2E37A4"/>
<path d="M194.892 419.559C208.75 419.559 219.984 408.325 219.984 394.467C219.984 380.609 208.75 369.375 194.892 369.375C181.034 369.375 169.8 380.609 169.8 394.467C169.8 408.325 181.034 419.559 194.892 419.559Z" fill="#7B81C6"/>
<path d="M193.74 397.609C184.829 397.609 176.282 394.069 169.981 387.768C163.68 381.467 160.14 372.92 160.14 364.009V343.957C160.14 343.12 160.472 342.317 161.064 341.725C161.656 341.133 162.459 340.801 163.296 340.801C164.133 340.801 164.936 341.133 165.528 341.725C166.119 342.317 166.452 343.12 166.452 343.957V364.021C166.458 371.254 169.334 378.189 174.447 383.305C179.561 388.421 186.495 391.299 193.728 391.309C194.158 391.282 194.589 391.344 194.994 391.491C195.399 391.637 195.77 391.865 196.084 392.16C196.398 392.455 196.648 392.811 196.819 393.206C196.99 393.602 197.078 394.028 197.078 394.459C197.078 394.89 196.99 395.316 196.819 395.712C196.648 396.107 196.398 396.463 196.084 396.758C195.77 397.054 195.399 397.281 194.994 397.428C194.589 397.574 194.158 397.636 193.728 397.609H193.74Z" fill="#2E37A4"/>
<path d="M135.396 361.624H191.22C192.113 361.624 192.994 361.42 193.795 361.026C194.596 360.632 195.296 360.059 195.841 359.352C196.386 358.645 196.761 357.822 196.938 356.947C197.114 356.071 197.088 355.167 196.86 354.304L192 336.004C191.672 334.761 190.942 333.661 189.924 332.875C188.907 332.09 187.658 331.663 186.372 331.66H140.244C138.957 331.662 137.706 332.089 136.686 332.874C135.666 333.66 134.934 334.76 134.604 336.004L129.804 354.28C129.57 355.141 129.538 356.045 129.709 356.92C129.88 357.796 130.25 358.62 130.79 359.33C131.331 360.04 132.027 360.616 132.826 361.014C133.624 361.412 134.504 361.62 135.396 361.624Z" fill="#7B81C6"/>
<path d="M552.336 419.559C558.991 419.559 565.373 416.916 570.079 412.21C574.784 407.504 577.428 401.122 577.428 394.467C577.428 387.812 574.784 381.43 570.079 376.724C565.373 372.019 558.991 369.375 552.336 369.375H549.252V419.559H552.336Z" fill="#2E37A4"/>
<path d="M549.252 419.559C563.11 419.559 574.344 408.325 574.344 394.467C574.344 380.609 563.11 369.375 549.252 369.375C535.394 369.375 524.16 380.609 524.16 394.467C524.16 408.325 535.394 419.559 549.252 419.559Z" fill="#7B81C6"/>
<path d="M548.1 397.609C539.189 397.609 530.642 394.069 524.341 387.768C518.04 381.467 514.5 372.92 514.5 364.009V343.957C514.5 343.12 514.832 342.317 515.424 341.725C516.016 341.133 516.819 340.801 517.656 340.801C518.493 340.801 519.296 341.133 519.888 341.725C520.479 342.317 520.812 343.12 520.812 343.957V364.021C520.818 371.254 523.694 378.189 528.807 383.305C533.921 388.421 540.855 391.299 548.088 391.309C548.518 391.282 548.949 391.344 549.354 391.491C549.759 391.637 550.13 391.865 550.444 392.16C550.758 392.455 551.008 392.811 551.179 393.206C551.35 393.602 551.439 394.028 551.439 394.459C551.439 394.89 551.35 395.316 551.179 395.712C551.008 396.107 550.758 396.463 550.444 396.758C550.13 397.054 549.759 397.281 549.354 397.428C548.949 397.574 548.518 397.636 548.088 397.609H548.1Z" fill="#2E37A4"/>
<path d="M489.756 361.618H545.58C546.473 361.618 547.354 361.413 548.155 361.019C548.956 360.625 549.656 360.053 550.201 359.345C550.746 358.638 551.121 357.815 551.298 356.94C551.474 356.065 551.448 355.161 551.22 354.298L546.42 336.022C546.092 334.779 545.362 333.679 544.344 332.893C543.327 332.107 542.078 331.68 540.792 331.678H494.604C493.317 331.68 492.066 332.106 491.046 332.892C490.026 333.677 489.294 334.778 488.964 336.022L484.164 354.298C483.935 355.157 483.905 356.058 484.079 356.93C484.252 357.803 484.622 358.624 485.162 359.331C485.702 360.038 486.397 360.612 487.194 361.008C487.99 361.404 488.866 361.613 489.756 361.618Z" fill="#7B81C6"/>
<path d="M220.776 589.033H239.028V518.317H220.776V589.033Z" fill="#B4B7DE"/>
<path d="M171.3 589.024H231.864L241.008 506.26H180.444L171.3 589.024Z" fill="#434BAD"/>
<path d="M164.736 589.024H227.304L236.448 506.26H173.892L164.736 589.024Z" fill="#7B81C6"/>
<path d="M222.78 582.505L230.484 512.785H178.404L170.7 582.505H222.78Z" fill="white"/>
<path d="M212.028 565.597L212.4 562.801C214.332 545.305 203.412 529.717 189.228 529.717L188.904 532.561C186.972 550.045 197.892 565.633 212.088 565.633L212.028 565.597Z" fill="#7B81C6"/>
<path d="M130.908 668.879H184.716V589.019H130.908V668.879Z" fill="#B4B7DE"/>
<path d="M136.308 668.882H130.896V653.486H141.984L136.308 668.882Z" fill="#434BAD"/>
<path d="M281.712 668.879H335.52V589.019H281.712V668.879Z" fill="#B4B7DE"/>
<path d="M130.896 659.439H286.428V589.035H130.896V659.439Z" fill="#434BAD"/>
<path d="M281.016 668.882H286.428V653.486H275.34L281.016 668.882Z" fill="#434BAD"/>
<path d="M135.096 621.846H282.228V593.43H135.096V621.846Z" fill="#B4B7DE"/>
<path d="M198.852 612.005H218.472C222.69 612.006 226.865 611.147 230.74 609.48C234.615 607.813 238.109 605.373 241.008 602.309H176.316C179.217 605.371 182.711 607.81 186.585 609.477C190.46 611.144 194.634 612.004 198.852 612.005Z" fill="#434BAD"/>
<path d="M135.096 654.846H282.228V626.43H135.096V654.846Z" fill="#B4B7DE"/>
<path d="M198.852 644.958H218.472C222.69 644.959 226.865 644.1 230.74 642.433C234.615 640.766 238.109 638.326 241.008 635.262H176.316C179.217 638.324 182.711 640.763 186.585 642.43C190.46 644.097 194.634 644.957 198.852 644.958Z" fill="#434BAD"/>
<path d="M276.576 585.767H277.968C277.968 582.899 277.968 575.639 278.112 558.995C278.364 528.815 278.844 526.979 278.844 526.979L275.532 540.911C273.432 556.331 276.144 571.835 276.576 585.767Z" fill="#B4B7DE"/>
<path d="M273.828 538.797C269.028 533.121 258.888 531.465 248.472 530.049C244.38 529.497 259.212 538.845 266.472 545.481C272.112 550.641 275.712 552.069 277.272 557.205C278.064 550.797 277.932 543.729 273.828 538.797Z" fill="#B4B7DE"/>
<path d="M280.152 548.976C284.952 543.3 295.092 541.656 305.508 540.24C309.6 539.688 294.708 549.036 287.508 555.672C281.868 560.832 278.268 562.26 276.708 567.396C275.916 560.988 276 553.872 280.152 548.976Z" fill="#B4B7DE"/>
<path d="M278.112 525.603C281.712 518.811 290.664 512.403 300.756 510.003C304.716 509.055 291.576 522.531 286.584 531.231C282.708 537.975 277.572 545.919 276.768 551.631C275.568 540.375 274.536 532.431 278.112 525.603Z" fill="#B4B7DE"/>
<path d="M277.68 589.024C273.432 589.024 269.916 586.9 269.664 584.164L268.956 579.508H286.416L285.696 584.164C285.456 586.9 282 589.024 277.68 589.024Z" fill="#434BAD"/>
<path d="M287.544 581.292H267.828L267.264 576.096H288.108L287.544 581.292Z" fill="#434BAD"/>
<path d="M263.448 482.062H455.7V306.706H263.448V482.062Z" fill="#B4B7DE"/>
<path d="M259.128 482.062H453.816V306.706H259.128V482.062Z" fill="#7B81C6"/>
<path d="M446.04 474.217V314.568H266.88V474.217H446.04Z" fill="#D9DBEF"/>
<path d="M424.068 474.217L353.556 314.568H329.604L400.116 474.217H424.068Z" fill="white"/>
<path d="M393.324 474.217L322.812 314.568H306.324L376.836 474.217H393.324Z" fill="white"/>
<path d="M333.408 474.207V314.559H324.144V474.207H333.408Z" fill="#B4B7DE"/>
<path d="M394.992 474.207V314.559H385.728V474.207H394.992Z" fill="#B4B7DE"/>
<path d="M331.74 479.201V308.729H320.028V479.201H331.74Z" fill="#7B81C6"/>
<path d="M393.324 479.201V308.729H381.612V479.201H393.324Z" fill="#7B81C6"/>
<path d="M267.72 474.217V314.568H266.892V474.217H267.72Z" fill="#B4B7DE"/>
<path d="M255.864 296.605H464.136C464.402 296.609 464.657 296.716 464.845 296.904C465.034 297.093 465.141 297.347 465.144 297.613C465.141 297.879 465.033 298.132 464.844 298.319C464.656 298.505 464.401 298.609 464.136 298.609H255.864C255.599 298.609 255.344 298.505 255.155 298.319C254.967 298.132 254.859 297.879 254.856 297.613C254.859 297.347 254.966 297.093 255.155 296.904C255.343 296.716 255.598 296.609 255.864 296.605Z" fill="#B4B7DE"/>
<path d="M455.7 303.216C456.058 303.212 456.4 303.068 456.651 302.814C456.903 302.56 457.044 302.217 457.044 301.86V298.956C457.046 298.778 457.012 298.602 456.945 298.438C456.879 298.273 456.78 298.124 456.655 297.997C456.53 297.871 456.381 297.771 456.217 297.703C456.054 297.635 455.878 297.6 455.7 297.6C455.343 297.6 455 297.741 454.746 297.993C454.492 298.244 454.347 298.586 454.344 298.944V301.848C454.344 302.208 454.487 302.555 454.741 302.811C454.995 303.067 455.34 303.212 455.7 303.216Z" fill="#B4B7DE"/>
<path d="M270.96 303.216C271.319 303.213 271.662 303.069 271.915 302.815C272.169 302.561 272.313 302.218 272.316 301.86V298.956C272.316 298.596 272.173 298.251 271.919 297.997C271.665 297.742 271.32 297.6 270.96 297.6C270.604 297.6 270.262 297.741 270.01 297.993C269.758 298.245 269.616 298.587 269.616 298.944V301.848C269.614 302.026 269.648 302.202 269.715 302.367C269.781 302.533 269.88 302.683 270.005 302.81C270.13 302.937 270.278 303.038 270.442 303.108C270.606 303.177 270.782 303.214 270.96 303.216Z" fill="#B4B7DE"/>
<path opacity="0.6" d="M256.176 434.926H450.732V297.597H256.176V434.926Z" fill="#2E37A4"/>
<path d="M468.348 521.963H434.796C431.23 521.963 428.34 524.853 428.34 528.419V543.947C428.34 547.513 431.23 550.403 434.796 550.403H468.348C471.913 550.403 474.804 547.513 474.804 543.947V528.419C474.804 524.853 471.913 521.963 468.348 521.963Z" fill="#D9DBEF"/>
<path d="M472.632 516.713H430.512C429.312 516.713 428.34 517.685 428.34 518.885V520.637C428.34 521.836 429.312 522.809 430.512 522.809H472.632C473.831 522.809 474.804 521.836 474.804 520.637V518.885C474.804 517.685 473.831 516.713 472.632 516.713Z" fill="#B4B7DE"/>
<path d="M429.024 582.002C429.024 582.002 429.636 602.006 452.94 602.006C476.244 602.006 476.856 582.002 476.856 582.002H429.024Z" fill="#434BAD"/>
<path d="M482.16 582.002C482.16 582.002 482.772 602.006 506.076 602.006C529.38 602.006 529.992 582.002 529.992 582.002H482.16Z" fill="#434BAD"/>
<path d="M518.448 509.092H472.368C467.464 509.092 463.488 513.068 463.488 517.972V541.54C463.488 546.444 467.464 550.42 472.368 550.42H518.448C523.352 550.42 527.328 546.444 527.328 541.54V517.972C527.328 513.068 523.352 509.092 518.448 509.092Z" fill="#434BAD"/>
<path d="M524.352 501.863H466.464C464.82 501.863 463.488 503.196 463.488 504.839V507.263C463.488 508.907 464.82 510.239 466.464 510.239H524.352C525.996 510.239 527.328 508.907 527.328 507.263V504.839C527.328 503.196 525.996 501.863 524.352 501.863Z" fill="#7B81C6"/>
<path d="M411.468 668.879H417.516V569.71H411.468V668.879Z" fill="#B4B7DE"/>
<path d="M586.104 550.408H553.356V569.704H586.104V550.408Z" fill="#B4B7DE"/>
<path d="M390.528 569.711H553.344V550.415H390.528V569.711Z" fill="#7B81C6"/>
<path d="M586.104 601.941H553.356V621.238H586.104V601.941Z" fill="#B4B7DE"/>
<path d="M390.528 621.246H553.344V601.95H390.528V621.246Z" fill="#7B81C6"/>
<path d="M574.284 668.879H580.332V569.71H574.284V668.879Z" fill="#B4B7DE"/>
<path d="M547.308 668.879H553.356V569.71H547.308V668.879Z" fill="#7B81C6"/>
<path d="M390.528 668.879H396.576V569.71H390.528V668.879Z" fill="#7B81C6"/>
<path d="M360 723.078C488.499 723.078 592.668 716.996 592.668 709.494C592.668 701.992 488.499 695.91 360 695.91C231.501 695.91 127.332 701.992 127.332 709.494C127.332 716.996 231.501 723.078 360 723.078Z" fill="#7B81C6"/>
<path d="M372.492 648.606H219.408C216.946 648.571 214.589 647.607 212.808 645.906C211.028 644.206 209.956 641.895 209.808 639.438L196.08 373.577C196.004 372.394 196.173 371.208 196.576 370.094C196.98 368.98 197.609 367.961 198.425 367.102C199.241 366.242 200.225 365.56 201.317 365.099C202.408 364.637 203.583 364.407 204.768 364.421H357.852C360.313 364.452 362.67 365.414 364.451 367.113C366.232 368.811 367.304 371.12 367.452 373.577L381.156 639.438C381.232 640.619 381.064 641.803 380.662 642.916C380.26 644.029 379.633 645.048 378.82 645.908C378.007 646.768 377.026 647.452 375.937 647.916C374.848 648.38 373.676 648.615 372.492 648.606Z" fill="#2E37A4"/>
<path opacity="0.8" d="M372.492 648.606H219.408C216.946 648.571 214.589 647.607 212.808 645.906C211.028 644.206 209.956 641.895 209.808 639.438L196.08 373.577C196.004 372.394 196.173 371.208 196.576 370.094C196.98 368.98 197.609 367.961 198.425 367.102C199.241 366.242 200.225 365.56 201.317 365.099C202.408 364.637 203.583 364.407 204.768 364.421H357.852C360.313 364.452 362.67 365.414 364.451 367.113C366.232 368.811 367.304 371.12 367.452 373.577L381.156 639.438C381.232 640.619 381.064 641.803 380.662 642.916C380.26 644.029 379.633 645.048 378.82 645.908C378.007 646.768 377.026 647.452 375.937 647.916C374.848 648.38 373.676 648.615 372.492 648.606Z" fill="white"/>
<path d="M342.744 355.758H325.812V356.958H342.744V355.758Z" fill="#2E37A4"/>
<path d="M319.944 355.758H313.74V356.958H319.944V355.758Z" fill="#2E37A4"/>
<path d="M379.08 631.739H232.68C230.322 631.716 228.061 630.801 226.351 629.178C224.641 627.555 223.61 625.344 223.464 622.991L210.36 368.71C210.287 367.578 210.449 366.444 210.835 365.377C211.222 364.311 211.824 363.336 212.605 362.514C213.386 361.691 214.328 361.039 215.373 360.598C216.417 360.156 217.542 359.936 218.676 359.95H365.076C367.433 359.976 369.693 360.894 371.401 362.519C373.109 364.145 374.138 366.357 374.28 368.71L387.384 622.991C387.457 624.121 387.295 625.254 386.91 626.319C386.524 627.384 385.922 628.357 385.143 629.179C384.363 630 383.422 630.652 382.379 631.092C381.336 631.533 380.212 631.753 379.08 631.739Z" fill="#2E37A4"/>
<path d="M379.08 625.89H232.68C231.821 625.86 231.004 625.516 230.382 624.923C229.76 624.33 229.378 623.53 229.308 622.674L216.192 368.404C216.162 368.066 216.205 367.725 216.316 367.405C216.428 367.084 216.607 366.791 216.84 366.544C217.074 366.298 217.358 366.105 217.672 365.977C217.987 365.848 218.325 365.788 218.664 365.8H365.064C365.921 365.833 366.735 366.178 367.355 366.771C367.974 367.363 368.354 368.162 368.424 369.016L381.6 623.286C381.629 623.623 381.586 623.962 381.475 624.281C381.363 624.601 381.186 624.893 380.953 625.139C380.721 625.385 380.44 625.579 380.127 625.708C379.815 625.837 379.478 625.899 379.14 625.89H379.08ZM218.664 366.1C218.366 366.091 218.069 366.143 217.792 366.255C217.515 366.366 217.264 366.535 217.056 366.748C216.856 366.97 216.702 367.23 216.605 367.513C216.509 367.795 216.47 368.094 216.492 368.392L229.596 622.662C229.663 623.44 230.012 624.168 230.578 624.707C231.144 625.246 231.887 625.56 232.668 625.59H379.068C379.365 625.601 379.661 625.55 379.936 625.438C380.211 625.326 380.459 625.157 380.664 624.942C380.869 624.723 381.026 624.464 381.123 624.18C381.22 623.897 381.256 623.596 381.228 623.298L368.136 369.028C368.072 368.251 367.725 367.523 367.162 366.984C366.598 366.444 365.856 366.13 365.076 366.1H218.664Z" fill="white"/>
<path opacity="0.3" d="M327.872 458.473C344.523 441.386 343.439 413.323 325.45 395.793C307.461 378.263 279.38 377.903 262.728 394.991C246.077 412.078 247.161 440.141 265.15 457.671C283.139 475.201 311.221 475.56 327.872 458.473Z" fill="white"/>
<path d="M331.2 426.735C331.536 432.632 330.35 438.517 327.756 443.823C324.948 449.515 320.589 454.298 315.182 457.62C309.775 460.943 303.538 462.67 297.192 462.603C290.615 462.544 284.166 460.783 278.471 457.492C272.777 454.201 268.031 449.492 264.696 443.823C261.588 438.639 259.8 432.771 259.488 426.735C259.192 422.106 259.855 417.465 261.435 413.104C263.015 408.742 265.478 404.754 268.67 401.388C271.863 398.023 275.715 395.352 279.987 393.544C284.259 391.735 288.858 390.828 293.496 390.879C303.15 390.98 312.407 394.735 319.404 401.388C326.4 408.041 330.615 417.098 331.2 426.735Z" fill="white"/>
<path d="M327.72 443.827C324.912 449.519 320.553 454.302 315.146 457.624C309.738 460.947 303.502 462.674 297.156 462.607C290.579 462.548 284.13 460.787 278.435 457.496C272.74 454.205 267.995 449.496 264.66 443.827C273.779 437.529 284.61 434.179 295.692 434.227C307.071 434.27 318.194 437.604 327.72 443.827Z" fill="#2E37A4"/>
<path d="M306.417 425.908C312.416 419.752 312.023 409.639 305.539 403.321C299.056 397.002 288.936 396.871 282.937 403.027C276.938 409.183 277.331 419.296 283.815 425.614C290.298 431.932 300.417 432.064 306.417 425.908Z" fill="#2E37A4"/>
<path d="M358.092 532.804H243.456C242.458 532.794 241.5 532.405 240.776 531.717C240.053 531.029 239.617 530.093 239.556 529.096L238.692 512.296C238.662 511.818 238.731 511.339 238.895 510.889C239.059 510.439 239.314 510.028 239.644 509.681C239.974 509.334 240.372 509.059 240.813 508.873C241.254 508.687 241.729 508.594 242.208 508.6H356.844C357.841 508.61 358.796 508.997 359.52 509.682C360.243 510.368 360.68 511.301 360.744 512.296L361.608 529.096C361.639 529.575 361.572 530.055 361.409 530.506C361.246 530.958 360.991 531.371 360.661 531.719C360.331 532.067 359.932 532.343 359.49 532.53C359.048 532.717 358.572 532.81 358.092 532.804Z" fill="white"/>
<path opacity="0.3" d="M322.992 499.331H275.112C274.109 499.324 273.147 498.935 272.421 498.244C271.694 497.553 271.258 496.612 271.2 495.611L271.02 492.011C270.988 491.532 271.056 491.052 271.219 490.601C271.382 490.149 271.637 489.736 271.967 489.388C272.297 489.04 272.696 488.764 273.138 488.577C273.58 488.39 274.056 488.297 274.536 488.303H322.404C323.402 488.313 324.36 488.702 325.084 489.39C325.807 490.078 326.243 491.014 326.304 492.011L326.496 495.611C326.525 496.089 326.457 496.568 326.294 497.018C326.131 497.469 325.878 497.881 325.549 498.23C325.221 498.578 324.825 498.856 324.385 499.045C323.945 499.235 323.471 499.332 322.992 499.331Z" fill="#030303"/>
<path opacity="0.3" d="M340.8 613.578H269.076C267.378 613.557 265.75 612.895 264.519 611.724C263.289 610.554 262.546 608.961 262.44 607.266L262.02 598.986C261.978 598.172 262.102 597.358 262.384 596.594C262.667 595.829 263.102 595.131 263.663 594.54C264.225 593.949 264.9 593.479 265.65 593.158C266.399 592.838 267.205 592.673 268.02 592.674H339.72C341.418 592.695 343.046 593.357 344.277 594.527C345.508 595.698 346.25 597.291 346.356 598.986L346.776 607.266C346.818 608.078 346.695 608.89 346.414 609.652C346.133 610.415 345.7 611.113 345.141 611.703C344.582 612.293 343.909 612.764 343.163 613.086C342.417 613.408 341.613 613.576 340.8 613.578Z" fill="#030303"/>
<path d="M360.192 573.437H245.544C244.547 573.424 243.591 573.035 242.868 572.347C242.144 571.66 241.708 570.725 241.644 569.729L240.78 552.929C240.75 552.45 240.82 551.971 240.983 551.52C241.147 551.07 241.402 550.658 241.731 550.31C242.061 549.962 242.459 549.686 242.9 549.499C243.342 549.311 243.817 549.217 244.296 549.221H358.932C359.931 549.231 360.888 549.619 361.612 550.307C362.335 550.995 362.771 551.932 362.832 552.929L363.708 569.729C363.736 570.207 363.666 570.686 363.501 571.135C363.337 571.585 363.082 571.997 362.753 572.344C362.423 572.691 362.026 572.968 361.586 573.156C361.145 573.344 360.671 573.439 360.192 573.437Z" fill="white"/>
<path d="M258 520.7C258.033 521.23 257.956 521.762 257.775 522.261C257.593 522.76 257.31 523.217 256.944 523.602C256.578 523.987 256.137 524.293 255.647 524.5C255.158 524.706 254.631 524.81 254.1 524.804C252.996 524.791 251.938 524.36 251.139 523.599C250.34 522.838 249.859 521.802 249.792 520.7C249.757 520.17 249.832 519.639 250.013 519.14C250.193 518.641 250.474 518.184 250.839 517.799C251.204 517.413 251.645 517.107 252.134 516.9C252.623 516.694 253.149 516.59 253.68 516.596C254.785 516.609 255.844 517.039 256.645 517.8C257.447 518.561 257.93 519.597 258 520.7Z" fill="#0A1B39"/>
<path d="M270.636 520.7C270.671 521.23 270.596 521.761 270.415 522.26C270.235 522.759 269.954 523.216 269.589 523.601C269.223 523.987 268.783 524.293 268.294 524.499C267.805 524.706 267.279 524.81 266.748 524.804C265.643 524.794 264.584 524.364 263.784 523.602C262.984 522.84 262.504 521.803 262.44 520.7C262.405 520.17 262.48 519.639 262.66 519.14C262.841 518.641 263.122 518.184 263.487 517.799C263.852 517.413 264.293 517.107 264.782 516.9C265.271 516.694 265.797 516.59 266.328 516.596C267.433 516.606 268.492 517.036 269.292 517.798C270.092 518.56 270.572 519.597 270.636 520.7Z" fill="#0A1B39"/>
<path d="M283.2 520.7C283.235 521.23 283.16 521.761 282.98 522.26C282.799 522.759 282.518 523.216 282.153 523.601C281.788 523.987 281.347 524.293 280.858 524.499C280.369 524.706 279.843 524.81 279.312 524.804C278.207 524.791 277.148 524.361 276.347 523.6C275.546 522.839 275.062 521.803 274.992 520.7C274.959 520.17 275.036 519.638 275.217 519.139C275.399 518.64 275.682 518.183 276.048 517.798C276.414 517.413 276.855 517.107 277.345 516.9C277.834 516.694 278.361 516.59 278.892 516.596C279.996 516.609 281.054 517.04 281.853 517.801C282.652 518.562 283.133 519.598 283.2 520.7Z" fill="#0A1B39"/>
<path d="M295.86 520.7C295.893 521.229 295.817 521.76 295.636 522.258C295.455 522.757 295.173 523.212 294.809 523.597C294.444 523.982 294.004 524.288 293.516 524.496C293.028 524.703 292.502 524.808 291.972 524.804C290.867 524.791 289.808 524.361 289.007 523.6C288.205 522.839 287.722 521.803 287.652 520.7C287.619 520.171 287.695 519.64 287.876 519.142C288.057 518.643 288.339 518.187 288.703 517.802C289.068 517.417 289.508 517.111 289.996 516.904C290.484 516.696 291.01 516.592 291.54 516.596C292.645 516.609 293.704 517.039 294.505 517.8C295.307 518.561 295.79 519.597 295.86 520.7Z" fill="#0A1B39"/>
<path d="M260.124 561.303C260.159 561.833 260.084 562.364 259.903 562.864C259.723 563.363 259.442 563.82 259.077 564.205C258.711 564.59 258.271 564.896 257.782 565.103C257.293 565.31 256.767 565.414 256.236 565.408C255.131 565.395 254.072 564.964 253.271 564.203C252.469 563.442 251.985 562.406 251.916 561.303C251.883 560.773 251.96 560.242 252.141 559.742C252.323 559.243 252.605 558.787 252.971 558.401C253.337 558.016 253.779 557.711 254.268 557.504C254.758 557.297 255.285 557.193 255.816 557.199C256.92 557.213 257.978 557.643 258.777 558.405C259.576 559.166 260.057 560.202 260.124 561.303Z" fill="#0A1B39"/>
<path d="M272.736 561.304C272.769 561.833 272.693 562.363 272.512 562.862C272.331 563.36 272.049 563.816 271.685 564.201C271.32 564.586 270.88 564.892 270.392 565.099C269.904 565.307 269.378 565.412 268.848 565.408C267.743 565.395 266.684 564.964 265.883 564.203C265.081 563.442 264.598 562.406 264.528 561.304C264.493 560.774 264.568 560.243 264.749 559.743C264.929 559.244 265.21 558.787 265.575 558.402C265.94 558.017 266.381 557.711 266.87 557.504C267.359 557.297 267.885 557.193 268.416 557.199C269.521 557.212 270.58 557.643 271.381 558.404C272.183 559.165 272.666 560.201 272.736 561.304Z" fill="#0A1B39"/>
<path d="M285.348 561.304C285.381 561.834 285.304 562.365 285.123 562.865C284.941 563.364 284.658 563.82 284.292 564.206C283.926 564.591 283.485 564.896 282.995 565.103C282.506 565.31 281.979 565.414 281.448 565.408C280.343 565.397 279.284 564.968 278.484 564.206C277.684 563.444 277.204 562.406 277.14 561.304C277.105 560.774 277.18 560.243 277.36 559.743C277.541 559.244 277.822 558.787 278.187 558.402C278.552 558.017 278.993 557.711 279.482 557.504C279.971 557.297 280.497 557.193 281.028 557.199C282.133 557.212 283.192 557.643 283.993 558.404C284.794 559.165 285.278 560.201 285.348 561.304Z" fill="#0A1B39"/>
<path d="M297.948 561.303C297.983 561.833 297.908 562.364 297.728 562.864C297.547 563.363 297.266 563.82 296.901 564.205C296.536 564.59 296.095 564.896 295.606 565.103C295.117 565.31 294.591 565.414 294.06 565.408C292.955 565.395 291.896 564.964 291.095 564.203C290.294 563.442 289.81 562.406 289.74 561.303C289.707 560.773 289.784 560.242 289.965 559.742C290.147 559.243 290.43 558.787 290.796 558.401C291.162 558.016 291.603 557.711 292.093 557.504C292.582 557.297 293.109 557.193 293.64 557.199C294.745 557.21 295.804 557.639 296.604 558.401C297.404 559.163 297.884 560.201 297.948 561.303Z" fill="#0A1B39"/>
<path d="M310.56 561.303C310.595 561.833 310.52 562.364 310.339 562.864C310.159 563.363 309.878 563.819 309.513 564.205C309.148 564.59 308.707 564.896 308.218 565.103C307.729 565.31 307.203 565.414 306.672 565.407C305.567 565.394 304.508 564.964 303.707 564.203C302.905 563.442 302.422 562.406 302.352 561.303C302.319 560.774 302.395 560.244 302.576 559.745C302.757 559.247 303.039 558.791 303.403 558.406C303.768 558.021 304.208 557.715 304.696 557.507C305.184 557.3 305.71 557.195 306.24 557.199C307.345 557.212 308.404 557.642 309.205 558.404C310.007 559.165 310.49 560.201 310.56 561.303Z" fill="#0A1B39"/>
<path d="M323.172 561.304C323.205 561.834 323.128 562.365 322.947 562.865C322.765 563.364 322.483 563.82 322.117 564.206C321.751 564.591 321.309 564.896 320.82 565.103C320.33 565.31 319.803 565.414 319.272 565.408C318.168 565.394 317.11 564.964 316.311 564.202C315.512 563.441 315.031 562.405 314.964 561.304C314.929 560.774 315.004 560.243 315.185 559.743C315.365 559.244 315.646 558.787 316.011 558.402C316.377 558.017 316.817 557.711 317.306 557.504C317.795 557.297 318.321 557.193 318.852 557.199C319.957 557.212 321.016 557.643 321.817 558.404C322.619 559.165 323.103 560.201 323.172 561.304Z" fill="#0A1B39"/>
<path d="M459.6 421.938C459.9 422.394 460.056 422.634 460.248 422.958L460.788 423.846C461.136 424.446 461.448 425.046 461.748 425.634C462.348 426.834 462.948 428.034 463.428 429.234C464.434 431.617 465.299 434.057 466.02 436.542C467.473 441.449 468.43 446.491 468.876 451.59L468.96 452.538C468.97 452.73 468.97 452.922 468.96 453.114V453.75C468.98 454.584 468.932 455.419 468.816 456.246C468.586 457.778 468.183 459.28 467.616 460.722C466.562 463.297 465.165 465.719 463.464 467.922C460.291 471.985 456.525 475.549 452.292 478.494L448.98 474.618C451.994 471.214 454.663 467.52 456.948 463.59C457.976 461.807 458.782 459.905 459.348 457.926C459.577 457.087 459.71 456.226 459.744 455.358C459.781 454.987 459.781 454.613 459.744 454.242V453.99C459.756 453.878 459.756 453.765 459.744 453.654L459.6 452.814C458.828 448.341 457.738 443.93 456.336 439.614C455.64 437.466 454.788 435.39 453.936 433.362C453.516 432.342 453.036 431.346 452.556 430.386L451.812 428.97L451.44 428.31L451.128 427.782L459.6 421.938Z" fill="#F7AC94"/>
<path d="M448.44 478.522L452.784 487.702L456.228 479.938C456.228 479.938 453.168 473.218 449.028 473.842L448.44 478.522Z" fill="#F7AC94"/>
<path d="M455.892 488.152L459.348 482.488L456.228 479.932L452.784 487.696L455.892 488.152Z" fill="#F7AC94"/>
<path d="M436.356 699.86C437.255 699.838 438.148 699.717 439.02 699.5C439.064 699.487 439.104 699.462 439.136 699.428C439.167 699.394 439.189 699.353 439.2 699.308C439.207 699.262 439.201 699.215 439.182 699.172C439.163 699.129 439.132 699.093 439.092 699.068C438.744 698.84 435.696 696.872 434.52 697.4C434.39 697.461 434.278 697.555 434.196 697.673C434.113 697.791 434.064 697.929 434.052 698.072C434.016 698.289 434.033 698.512 434.102 698.721C434.171 698.93 434.29 699.119 434.448 699.272C434.992 699.692 435.67 699.901 436.356 699.86ZM438.336 699.152C436.596 699.512 435.276 699.452 434.736 698.984C434.626 698.875 434.545 698.739 434.501 698.59C434.457 698.442 434.451 698.284 434.484 698.132C434.484 697.928 434.604 697.868 434.688 697.832C435.336 697.544 437.1 698.396 438.336 699.152Z" fill="#2E37A4"/>
<path d="M438.96 699.5H439.08C439.116 699.476 439.146 699.444 439.167 699.406C439.188 699.369 439.199 699.327 439.2 699.284C439.2 699.164 439.2 696.272 438.096 695.3C437.961 695.178 437.8 695.087 437.626 695.033C437.452 694.979 437.269 694.964 437.088 694.987C436.899 694.989 436.716 695.055 436.57 695.175C436.423 695.296 436.323 695.462 436.284 695.647C436.056 696.787 437.88 698.948 438.84 699.5H438.96ZM437.244 695.431C437.341 695.429 437.438 695.445 437.529 695.48C437.619 695.515 437.702 695.568 437.772 695.636C438.405 696.569 438.732 697.676 438.708 698.804C437.748 698.036 436.608 696.403 436.752 695.719C436.752 695.611 436.836 695.467 437.136 695.431H437.244Z" fill="#2E37A4"/>
<path d="M425.028 694.969C425.056 694.934 425.074 694.892 425.081 694.847C425.087 694.802 425.081 694.757 425.064 694.715C425.047 694.674 425.019 694.637 424.983 694.61C424.947 694.583 424.905 694.566 424.86 694.561C424.368 694.561 420.06 694.357 419.076 695.413V695.485C418.995 695.589 418.942 695.712 418.923 695.842C418.904 695.973 418.919 696.106 418.968 696.229C419.032 696.435 419.145 696.622 419.298 696.775C419.45 696.927 419.638 697.041 419.844 697.105C421.236 697.537 423.696 695.965 425.04 694.993L425.028 694.969ZM419.436 695.725C419.976 695.149 422.352 694.993 424.128 695.017C422.268 696.289 420.72 696.889 419.94 696.649C419.804 696.608 419.68 696.533 419.58 696.433C419.479 696.332 419.405 696.209 419.364 696.073C419.34 696.026 419.327 695.975 419.327 695.923C419.327 695.871 419.34 695.819 419.364 695.773L419.436 695.725Z" fill="#2E37A4"/>
<path d="M425.028 694.962C425.046 694.924 425.056 694.883 425.056 694.842C425.056 694.8 425.046 694.759 425.028 694.722C424.968 694.626 423.624 692.322 422.04 691.842C421.813 691.775 421.574 691.756 421.339 691.784C421.103 691.813 420.877 691.89 420.672 692.01C420.096 692.346 420.06 692.742 420.132 692.994C420.444 694.11 423.504 695.094 424.824 695.082C424.865 695.081 424.906 695.07 424.942 695.049C424.978 695.028 425.007 694.998 425.028 694.962ZM420.72 692.562C420.788 692.495 420.865 692.439 420.948 692.394C421.096 692.299 421.263 692.238 421.437 692.216C421.612 692.193 421.789 692.209 421.956 692.262C423 692.538 423.972 693.882 424.416 694.542C422.988 694.386 420.816 693.51 420.636 692.838C420.621 692.787 420.621 692.732 420.635 692.681C420.65 692.63 420.68 692.584 420.72 692.55V692.562Z" fill="#2E37A4"/>
<path d="M438.24 386.791C437.04 392.791 434.448 405.763 438.612 409.747C438.612 409.747 436.98 415.747 425.904 415.747C413.712 415.747 420.084 409.747 420.084 409.747C426.732 408.163 426.564 403.219 425.4 398.587L438.24 386.791Z" fill="#F7AC94"/>
<path d="M417.936 372.727C418.004 372.738 418.073 372.738 418.14 372.727C418.197 372.699 418.248 372.66 418.29 372.612C418.332 372.564 418.363 372.509 418.384 372.448C418.404 372.388 418.412 372.324 418.407 372.261C418.402 372.198 418.385 372.136 418.356 372.079C418.033 371.395 417.551 370.798 416.95 370.338C416.348 369.879 415.645 369.571 414.9 369.439C414.775 369.429 414.651 369.466 414.553 369.544C414.455 369.623 414.39 369.735 414.372 369.859C414.359 369.985 414.395 370.111 414.474 370.209C414.552 370.308 414.667 370.372 414.792 370.387C415.381 370.5 415.933 370.752 416.405 371.121C416.877 371.491 417.254 371.967 417.504 372.511C417.551 372.582 417.615 372.64 417.691 372.678C417.767 372.715 417.851 372.733 417.936 372.727Z" fill="#0A1B39"/>
<path d="M414.3 377.998C413.355 379.75 412.176 381.365 410.796 382.798C411.17 383.14 411.613 383.397 412.096 383.55C412.579 383.703 413.089 383.75 413.592 383.686L414.3 377.998Z" fill="#630F0F"/>
<path d="M415.2 376.639C415.104 377.443 414.588 378.043 414.072 377.983C413.556 377.923 413.196 377.215 413.292 376.411C413.388 375.607 413.904 375.007 414.492 375.067C415.08 375.127 415.284 375.835 415.2 376.639Z" fill="#0A1B39"/>
<path d="M414.648 375.14L412.8 374.396C412.8 374.396 413.58 375.98 414.648 375.14Z" fill="#0A1B39"/>
<path d="M435.624 692.682L425.832 694.962L419.88 672.45L429.672 670.17L435.624 692.682Z" fill="#F7AC94"/>
<path d="M450.648 699.26H440.604L441.384 675.992H451.44L450.648 699.26Z" fill="#F7AC94"/>
<path d="M439.8 698.1H451.092C451.288 698.098 451.477 698.168 451.625 698.296C451.773 698.424 451.87 698.602 451.896 698.796L453.18 707.724C453.205 707.949 453.183 708.178 453.113 708.394C453.044 708.611 452.929 708.81 452.778 708.979C452.626 709.148 452.44 709.283 452.232 709.375C452.024 709.466 451.799 709.513 451.572 709.512C447.636 709.452 445.74 709.212 440.772 709.212C437.712 709.212 433.248 709.536 429.036 709.536C424.824 709.536 424.584 705.36 426.348 704.988C434.22 703.284 435.468 700.956 438.12 698.724C438.588 698.323 439.184 698.102 439.8 698.1Z" fill="#0A1B39"/>
<path d="M424.968 693.471L435.228 688.755C435.402 688.672 435.601 688.655 435.787 688.708C435.972 688.761 436.132 688.88 436.236 689.043L441.144 696.627C441.259 696.822 441.331 697.039 441.357 697.264C441.382 697.489 441.36 697.717 441.293 697.933C441.225 698.149 441.112 698.348 440.963 698.518C440.813 698.688 440.63 698.824 440.424 698.919C436.824 700.503 435 701.091 430.488 703.167C427.716 704.439 422.088 707.367 418.272 709.167C414.456 710.967 412.488 707.235 413.928 706.155C420.372 701.355 422.22 697.911 423.696 694.779C423.946 694.202 424.398 693.736 424.968 693.471Z" fill="#0A1B39"/>
<path opacity="0.2" d="M419.88 672.45L423.072 684.522L432.744 681.774L429.684 670.17L419.88 672.45Z" fill="#030303"/>
<path opacity="0.2" d="M451.44 675.992H441.384L440.988 687.992H451.044L451.44 675.992Z" fill="#030303"/>
<path d="M456 412.03C460.176 412.954 464.64 427.966 464.64 427.966L452.832 440.53C452.832 440.53 443.028 426.418 445.032 421.234C447.06 415.822 451.02 410.95 456 412.03Z" fill="#0A1B39"/>
<path opacity="0.4" d="M449.328 421.589C447.216 419.657 445.788 420.233 444.816 421.769C443.856 426.233 449.544 435.581 451.836 439.121C452.892 434.897 454.104 425.993 449.328 421.589Z" fill="#030303"/>
<path d="M403.092 412.327C403.092 412.327 398.292 414.007 407.892 472.988H448.692C448.008 456.38 447.984 446.132 455.892 412.027C450.175 410.848 444.38 410.086 438.552 409.747C432.384 409.303 426.192 409.303 420.024 409.747C412.116 410.479 403.092 412.327 403.092 412.327Z" fill="#0A1B39"/>
<path opacity="0.4" d="M402.72 434.963C402.984 437.831 403.332 441.059 403.788 444.707C407.136 441.695 409.872 433.127 408.864 428.135C406.472 430.076 404.399 432.38 402.72 434.963Z" fill="#030303"/>
<path d="M407.088 425.993C404.886 431.534 402.407 436.961 399.66 442.253C396.945 447.736 393.731 452.958 390.06 457.853L389.292 458.801L388.908 459.269C388.776 459.425 388.668 459.569 388.464 459.785C387.742 460.573 386.937 461.281 386.064 461.897C384.521 462.966 382.831 463.806 381.048 464.393C377.938 465.387 374.71 465.96 371.448 466.097C365.34 466.34 359.225 465.796 353.256 464.477L353.916 459.437C356.676 459.437 359.568 459.437 362.316 459.209C365.076 459.074 367.825 458.769 370.548 458.297C373.077 457.903 375.55 457.21 377.916 456.233C378.872 455.825 379.764 455.284 380.568 454.625C380.875 454.368 381.152 454.079 381.396 453.761C381.396 453.761 381.54 453.569 381.636 453.437L381.912 453.041L382.476 452.249C385.487 447.598 388.17 442.742 390.504 437.717C392.904 432.617 395.304 427.325 397.5 422.117L407.088 425.993Z" fill="#F7AC94"/>
<path d="M403.092 412.33C398.088 413.53 391.944 427.258 391.944 427.258L402.312 442.499C402.312 442.499 416.124 425.11 414.48 419.806C412.8 414.274 409.2 410.842 403.092 412.33Z" fill="#0A1B39"/>
<path d="M356.796 460.209L348.144 456.213L347.28 464.817C347.28 464.817 354.48 466.941 358.08 464.817L356.796 460.209Z" fill="#F7AC94"/>
<path d="M342.972 455.352L342.144 461.904L347.28 464.82L348.144 456.216L342.972 455.352Z" fill="#F7AC94"/>
<path d="M442.584 377.225C440.748 387.029 440.184 391.229 434.568 395.681C426.168 402.377 414.468 397.985 413.34 387.833C412.308 378.689 415.476 364.193 425.64 361.433C427.879 360.815 430.239 360.781 432.495 361.335C434.75 361.888 436.827 363.01 438.526 364.593C440.225 366.177 441.49 368.169 442.2 370.381C442.911 372.592 443.043 374.948 442.584 377.225Z" fill="#F7AC94"/>
<path d="M421.044 379.296C420.48 384.3 420.264 397.296 431.256 397.704C444.708 398.196 448.74 386.7 447.54 382.104C454.548 376.404 455.556 366.599 447.684 359.099C439.812 351.599 422.484 355.787 417.684 363.095C411.6 372.155 421.044 379.296 421.044 379.296Z" fill="#0A1B39"/>
<path d="M434.52 362.014C433.872 356.734 434.376 353.098 439.32 353.098C444.264 353.098 451.008 354.886 453.48 359.938C455.952 364.99 456.156 372.898 449.256 372.094C442.356 371.29 435.3 368.326 434.52 362.014Z" fill="#2E37A4"/>
<path d="M442.176 360.74C440.976 354.452 446.604 336.74 460.272 335.54C466.608 335 469.536 341.816 466.272 342.944C472.272 342.872 476.112 350.804 470.52 351.992C474.936 354.824 473.844 360.632 467.544 363.488C462.852 365.648 443.796 369.452 442.176 360.74Z" fill="#0A1B39"/>
<path d="M456.78 367.493C452.376 367.493 447.78 366.845 444.924 364.937C444.126 364.456 443.453 363.791 442.963 362.998C442.472 362.205 442.178 361.306 442.104 360.377C442.101 360.298 442.127 360.221 442.178 360.161C442.229 360.101 442.302 360.062 442.38 360.053C442.42 360.048 442.46 360.051 442.499 360.063C442.537 360.074 442.572 360.094 442.603 360.119C442.633 360.145 442.658 360.178 442.676 360.214C442.693 360.25 442.703 360.289 442.704 360.329C442.776 361.168 443.046 361.978 443.49 362.693C443.934 363.408 444.54 364.008 445.26 364.445C450.696 368.045 463.26 366.845 467.172 365.645C470.556 364.541 472.848 362.393 473.304 359.921C473.446 359.014 473.334 358.085 472.98 357.238C472.627 356.39 472.045 355.658 471.3 355.121C471.271 355.094 471.248 355.062 471.233 355.025C471.217 354.989 471.209 354.95 471.209 354.911C471.209 354.872 471.217 354.833 471.233 354.797C471.248 354.76 471.271 354.728 471.3 354.701C471.356 354.646 471.432 354.615 471.51 354.615C471.589 354.615 471.664 354.646 471.72 354.701C472.558 355.312 473.209 356.144 473.601 357.104C473.993 358.064 474.11 359.114 473.94 360.137C473.448 362.837 471.012 365.141 467.412 366.317C463.938 367.193 460.361 367.588 456.78 367.493Z" fill="#0A1B39"/>
<path d="M417.984 378C416.867 379.568 416.406 381.51 416.7 383.412C417.096 385.932 419.544 386.1 421.32 384.492C423.096 382.884 424.644 379.98 423.336 377.892C423.045 377.441 422.644 377.072 422.17 376.82C421.697 376.568 421.166 376.441 420.63 376.452C420.093 376.463 419.569 376.611 419.105 376.882C418.642 377.153 418.256 377.538 417.984 378Z" fill="#F7AC94"/>
<path d="M418.668 472.986C418.668 472.986 424.5 541.975 430.56 580.855C435.444 612.259 439.308 685.663 439.308 685.663H453.012C453.012 685.663 457.884 614.455 455.412 583.399C449.136 504.798 463.14 498.39 448.728 472.998L418.668 472.986Z" fill="#2E37A4"/>
<path opacity="0.4" d="M435.924 499.066C430.493 504.767 426.11 511.38 422.976 518.603C424.572 534.107 426.468 551.315 428.484 566.387C436.756 544.971 439.32 521.772 435.924 499.066Z" fill="#030303"/>
<path d="M409.08 472.555C409.08 472.555 396.42 547.903 394.428 581.863C399.396 613.267 419.724 679.652 419.724 679.652L432.192 675.128C432.192 675.128 425.292 602.743 417.792 582.931C434.676 526.087 447.084 511.711 443.472 472.987C434.82 472.987 409.08 472.555 409.08 472.555Z" fill="#2E37A4"/>
<path d="M418.056 682.962L434.904 678.39L433.944 671.67L415.908 676.554L418.056 682.962Z" fill="#0A1B39"/>
<path d="M437.424 685.943H454.884L455.796 679.823L437.328 679.199L437.424 685.943Z" fill="#0A1B39"/>
<path d="M449.328 470.591L451.164 474.251C451.308 474.539 450.972 474.827 450.504 474.827H407.688C407.328 474.827 407.016 474.647 406.992 474.407L406.62 470.807C406.62 470.555 406.92 470.339 407.316 470.339H448.656C448.78 470.322 448.907 470.336 449.024 470.38C449.141 470.424 449.246 470.497 449.328 470.591Z" fill="#2E37A4"/>
<path opacity="0.5" d="M449.328 470.591L451.164 474.251C451.308 474.539 450.972 474.827 450.504 474.827H407.688C407.328 474.827 407.016 474.647 406.992 474.407L406.62 470.807C406.62 470.555 406.92 470.339 407.316 470.339H448.656C448.78 470.322 448.907 470.336 449.024 470.38C449.141 470.424 449.246 470.497 449.328 470.591Z" fill="#030303"/>
<path d="M443.772 475.197H444.876C445.104 475.197 445.272 475.077 445.26 474.945L444.732 470.145C444.732 470.001 444.528 469.893 444.312 469.893H443.196C442.98 469.893 442.812 470.001 442.824 470.145L443.34 474.945C443.364 475.101 443.556 475.197 443.772 475.197Z" fill="#2E37A4"/>
<path d="M428.916 440.254C428.783 440.252 428.655 440.208 428.549 440.128C428.444 440.049 428.366 439.937 428.328 439.81C424.416 425.338 416.328 413.41 412.404 411.61C412.099 411.423 411.733 411.363 411.384 411.442C411.311 411.48 411.232 411.503 411.15 411.51C411.069 411.516 410.986 411.505 410.909 411.479C410.832 411.452 410.76 411.41 410.7 411.355C410.639 411.3 410.591 411.233 410.557 411.158C410.523 411.083 410.505 411.002 410.504 410.921C410.503 410.839 410.519 410.757 410.55 410.682C410.581 410.606 410.628 410.538 410.687 410.481C410.745 410.424 410.815 410.379 410.892 410.35C411.22 410.23 411.57 410.182 411.918 410.211C412.267 410.24 412.604 410.345 412.908 410.518C417.06 412.486 425.268 424.246 429.372 439.042C432.312 439.042 436.848 438.646 437.952 438.55C439.32 436.918 449.376 424.342 445.62 410.578C445.598 410.503 445.592 410.423 445.601 410.345C445.611 410.267 445.636 410.192 445.675 410.123C445.714 410.055 445.767 409.995 445.829 409.948C445.892 409.9 445.964 409.866 446.04 409.846C446.193 409.806 446.355 409.827 446.492 409.906C446.629 409.984 446.73 410.114 446.772 410.266C450.96 425.578 438.816 439.39 438.684 439.522C438.637 439.581 438.579 439.629 438.513 439.664C438.447 439.699 438.374 439.72 438.3 439.726C438.24 439.726 432.252 440.254 428.916 440.254Z" fill="#2E37A4"/>
<path d="M448.8 448.722C442.26 436.47 439.584 435.606 438.42 431.67C439.302 429.469 440.561 427.439 442.14 425.67C441.348 425.442 439.644 425.106 438.54 424.902C438.66 424.362 438.792 423.834 438.912 423.318C437.711 423.184 436.496 423.241 435.312 423.486V422.286C433.788 421.955 432.222 421.854 430.668 421.986C430.804 422.554 430.936 423.13 431.064 423.714C429.864 423.942 428.04 424.314 427.164 424.566C428.866 426.494 430.117 428.778 430.824 431.25C427.296 437.31 413.592 476.263 435.888 479.251C458.184 482.239 455.328 460.986 448.8 448.722Z" fill="#2E37A4"/>
<path opacity="0.4" d="M448.8 448.722C442.26 436.47 439.584 435.606 438.42 431.67C439.302 429.469 440.561 427.439 442.14 425.67C441.348 425.442 439.644 425.106 438.54 424.902C438.66 424.362 438.792 423.834 438.912 423.318C437.711 423.184 436.496 423.241 435.312 423.486V422.286C433.788 421.955 432.222 421.854 430.668 421.986C430.804 422.554 430.936 423.13 431.064 423.714C429.864 423.942 428.04 424.314 427.164 424.566C428.866 426.494 430.117 428.778 430.824 431.25C427.296 437.31 413.592 476.263 435.888 479.251C458.184 482.239 455.328 460.986 448.8 448.722Z" fill="white"/>
<path d="M429.912 430.088C429.773 430.706 429.713 431.339 429.732 431.972C429.732 432.416 430.932 432.716 432.264 432.848C433.596 432.98 439.188 433.196 439.008 432.572C438.828 431.948 439.284 431.096 439.308 430.568C439.332 430.04 437.088 430.016 435.204 430.088C433.32 430.16 430.284 429.416 429.912 430.088Z" fill="#2E37A4"/>
<path d="M416.94 475.197H418.044C418.26 475.197 418.428 475.077 418.416 474.945L417.9 470.145C417.9 470.001 417.696 469.893 417.468 469.893H416.4C416.184 469.893 416.016 470.001 416.028 470.145L416.544 474.945C416.52 475.101 416.712 475.197 416.94 475.197Z" fill="#2E37A4"/>
</svg>
